<svg width="152" height="24" viewBox="0 0 152 24" fill="none" xmlns="http://www.w3.org/2000/svg">
<path d="M38.9031 7.6958V17.1928H37.7178V7.6958H34.015V6.60527H42.4242V7.6958H38.9031ZM52.5527 17.1928C52.7347 16.8416 57.9352 6.6158 58.0153 6.45717H58.0821C58.1503 6.60556 63.201 16.6519 63.4628 17.1928H62.1305C61.9979 16.9414 61.5256 15.982 61.3253 15.5824C61.0007 15.5824 55.1534 15.5874 54.6759 15.5874C54.5461 15.8295 54.0167 16.8591 53.8696 17.1928C53.6578 17.208 52.8002 17.1928 52.5527 17.1928ZM58.0153 8.85776C57.7217 9.46215 55.4155 14.0666 55.2204 14.4948C55.6634 14.4948 60.2918 14.4875 60.7705 14.4875C60.6379 14.1875 58.2802 9.41356 58.0153 8.85776ZM136.403 17.1928C136.588 16.8416 141.789 6.6158 141.869 6.45717H141.936C141.998 6.60556 147.052 16.6519 147.316 17.1928H145.979C145.711 16.6573 145.445 16.1205 145.182 15.5824C144.852 15.5824 139.007 15.5874 138.527 15.5874C138.397 15.8295 137.87 16.8591 137.725 17.1928C137.506 17.208 136.653 17.1928 136.403 17.1928ZM141.869 8.85776C141.574 9.46215 139.27 14.0666 139.07 14.4948C139.517 14.4948 144.146 14.4875 144.621 14.4875C144.489 14.1875 142.129 9.41356 141.869 8.85776ZM78.513 7.6958V17.1928H77.3299V7.6958H73.6258V6.60527H82.0339V7.6958H78.513ZM99.3757 17.4509C96.1989 17.4509 93.6154 14.9687 93.6154 11.9104C93.6154 8.8399 96.1989 6.34976 99.3757 6.34976C100.987 6.34976 102.487 6.93512 103.521 8.04644C103.34 8.21912 102.848 8.72839 102.633 8.90605C102.229 8.45979 101.73 8.10251 101.171 7.85845C100.611 7.6144 100.004 7.48925 99.3897 7.49151C96.94 7.49151 94.9332 9.46215 94.9332 11.9104C94.9332 14.3505 96.94 16.3071 99.3897 16.3071C100.659 16.3071 101.794 15.7774 102.618 14.9219C102.816 15.1133 103.321 15.5898 103.486 15.7627C102.468 16.8117 101.006 17.4509 99.3757 17.4509ZM116.201 6.60527H117.354V14.3277H123.557V6.60527H124.727V17.1928H123.557V15.4229H117.354V17.1928H116.201V6.60527ZM149.329 15.9419H148.893V15.8107H149.914V15.9419H149.478V17.0643H149.329V15.9419ZM150.19 15.8107H150.338L150.812 16.495L151.285 15.8107H151.433V17.0643H151.287V16.0487L150.814 16.7198H150.806L150.332 16.0504V17.0643H150.19V15.8107ZM13.0043 24C6.14643 24 0.56665 18.617 0.56665 11.9994C0.56665 5.38185 6.14643 0 13.0043 0C19.8621 0 25.4419 5.38332 25.4419 11.9994C25.4419 18.6155 19.8624 24 13.0043 24ZM13.0043 1.84624C7.20092 1.84624 2.47997 6.40098 2.47997 11.9994C2.47997 17.5979 7.20062 22.1538 13.0043 22.1538C18.8079 22.1538 23.5283 17.599 23.5283 11.9994C23.5283 6.39981 18.8076 1.84624 13.0043 1.84624ZM13.0167 14.3271C12.9342 14.3271 12.8523 14.2979 12.7895 14.237L12.0927 13.5638L12.0402 13.6144L8.05975 17.4893C8.05975 17.4893 7.58498 17.8838 7.85831 18.216L9.40183 19.7517C9.40183 19.7517 9.65908 20.0941 10.0659 19.9449C10.3644 19.8363 11.6046 19.3379 12.3675 19.0139L10.5944 17.3769C10.5323 17.3196 10.4964 17.241 10.4945 17.1582C10.4926 17.0754 10.5249 16.9952 10.5842 16.9354C10.6435 16.8755 10.7251 16.8409 10.8109 16.839C10.8967 16.8372 10.9798 16.8683 11.0418 16.9256L12.987 18.7218L12.9952 18.7285L14.8587 16.93C14.9196 16.8717 15.0019 16.8391 15.0876 16.8391C15.1734 16.8391 15.2556 16.8717 15.3165 16.93C15.3771 16.9888 15.411 17.0683 15.411 17.1512C15.411 17.2341 15.3771 17.3137 15.3165 17.3725L13.6131 19.0156C14.377 19.3411 15.6099 19.838 15.909 19.9449C16.3234 20.0941 16.5737 19.7517 16.5737 19.7517L18.1163 18.216C18.423 17.8648 17.9151 17.4893 17.9151 17.4893L13.935 13.615L13.9116 13.5928L13.2439 14.2373C13.2141 14.2661 13.1786 14.2889 13.1396 14.3044C13.1005 14.3199 13.0589 14.3274 13.0167 14.3271ZM10.7011 11.7831L11.3807 11.1275L11.3337 11.0819L7.31802 7.24098C7.31802 7.24098 6.9103 6.78439 6.56507 7.04722L4.97302 8.53639C4.97302 8.53639 4.61778 8.78517 4.77219 9.17737C4.88565 9.46566 5.40197 10.6613 5.73871 11.3982L7.43482 9.6881C7.46346 9.65596 7.49858 9.62977 7.53805 9.61115C7.57752 9.59253 7.6205 9.58185 7.66438 9.57977C7.70826 9.57769 7.75213 9.58425 7.7933 9.59905C7.83447 9.61385 7.87208 9.63658 7.90385 9.66586C7.93562 9.69514 7.96088 9.73035 7.97809 9.76935C7.9953 9.80836 8.0041 9.85033 8.00396 9.89272C8.00381 9.9351 7.99472 9.97702 7.97725 10.0159C7.95977 10.0548 7.93427 10.0899 7.9023 10.1189L6.04086 11.9959L6.03327 12.0032L7.89745 13.8015C7.9578 13.8603 7.99166 13.9397 7.99166 14.0224C7.99166 14.1052 7.9578 14.1846 7.89745 14.2434C7.83662 14.3018 7.75433 14.3345 7.66856 14.3345C7.58278 14.3345 7.50049 14.3018 7.43967 14.2434L5.73628 12.5997C5.39924 13.3373 4.88383 14.5261 4.77219 14.8153C4.61747 15.2145 4.97302 15.4563 4.97302 15.4563L6.56507 16.944C6.92911 17.2411 7.31802 16.7508 7.31802 16.7508L11.3337 12.9102L11.3743 12.8716L10.7008 12.2219C10.6406 12.1636 10.6068 12.0846 10.6068 12.0023C10.6068 11.92 10.6409 11.8414 10.7011 11.7831ZM13.2442 9.76859L13.9153 10.4169L13.9493 10.3847L17.9288 6.51044C17.9288 6.51044 18.4036 6.11649 18.1302 5.78429L16.5879 4.24859C16.5879 4.24859 16.3295 3.90615 15.9229 4.05541C15.6241 4.164 14.3849 4.66215 13.6213 4.98644L15.3942 6.62254C15.5231 6.74254 15.528 6.94068 15.4045 7.06537C15.3402 7.12829 15.2558 7.16107 15.1709 7.16107C15.0902 7.16107 15.0092 7.13268 14.947 7.07532L13.0012 5.27824L12.9934 5.2718L11.1298 7.07093C11.0688 7.12877 10.9866 7.16118 10.9011 7.16118C10.8155 7.16118 10.7334 7.12877 10.6723 7.07093C10.6117 7.01195 10.5777 6.93226 10.5777 6.84922C10.5777 6.76617 10.6117 6.68649 10.6723 6.62751L12.3751 4.98468C11.6115 4.65922 10.379 4.16283 10.0798 4.05541C9.66545 3.90615 9.41427 4.24859 9.41427 4.24859L7.87257 5.78429C7.56526 6.13493 8.07279 6.51015 8.07279 6.51015L12.0538 10.3847L12.103 10.4324L12.7895 9.76859C12.85 9.71068 12.9318 9.67818 13.017 9.67818C13.1023 9.67818 13.1837 9.71068 13.2442 9.76859ZM20.2702 12.6082L18.5734 14.3175C18.5445 14.3485 18.5093 14.3736 18.4701 14.3913C18.4309 14.409 18.3884 14.4189 18.3452 14.4205C18.3019 14.422 18.2588 14.4152 18.2183 14.4003C18.1779 14.3855 18.1409 14.363 18.1096 14.3341C18.0783 14.3053 18.0534 14.2706 18.0362 14.2323C18.0191 14.194 18.0101 14.1527 18.0098 14.1109C18.0094 14.0692 18.0178 14.0278 18.0344 13.9892C18.051 13.9506 18.0754 13.9156 18.1063 13.8863L19.968 12.0091L19.975 12.0018L18.1102 10.2038C18.0498 10.1451 18.0159 10.0658 18.0159 9.98312C18.0159 9.90044 18.0498 9.82111 18.1102 9.76244C18.1711 9.70396 18.2536 9.67113 18.3395 9.67113C18.4255 9.67113 18.5079 9.70396 18.5689 9.76244L20.272 11.4067C20.6087 10.6686 21.125 9.47941 21.2364 9.19054C21.3911 8.79102 21.0355 8.54897 21.0355 8.54897L19.4429 7.06156C19.0795 6.76449 18.6905 7.25473 18.6905 7.25473L14.6749 11.0956L14.6467 11.122L15.3323 11.7834C15.3925 11.8417 15.4264 11.9206 15.4264 12.0029C15.4264 12.0852 15.3925 12.1642 15.3323 12.2224L14.6391 12.8906L14.6749 12.9246L18.6905 16.7646C18.6905 16.7646 19.0986 17.2212 19.4429 16.9589L21.0355 15.4698C21.0355 15.4698 21.3908 15.2216 21.2364 14.8282C21.1226 14.539 20.6069 13.3446 20.2702 12.6082Z" fill="white"/>
</svg>
