<svg width="94" height="32" viewBox="0 0 94 32" fill="none" xmlns="http://www.w3.org/2000/svg">
<path fill-rule="evenodd" clip-rule="evenodd" d="M2.98038 7.6208H6.47537V26.4483C6.4918 27.1133 6.36934 27.7743 6.11583 28.3893C5.86231 29.0042 5.48331 29.5595 5.00305 30.0196C4.52278 30.4797 3.95182 30.8346 3.32664 31.0615C2.70146 31.2884 2.03582 31.3824 1.37226 31.3375H0V28.0352H1.00776C2.20849 28.0352 2.98038 27.4776 2.98038 26.1696V7.6208ZM2.95894 0.651611H6.47537V4.16837H2.95894V0.651611ZM12.2432 14.8902C12.1873 14.3724 12.241 13.8487 12.4008 13.3531C12.5607 12.8575 12.8231 12.401 13.171 12.0135C13.5188 11.626 13.9444 11.3161 14.42 11.104C14.8955 10.8918 15.4104 10.7822 15.9311 10.7822C16.4518 10.7822 16.9667 10.8918 17.4423 11.104C17.9178 11.3161 18.3434 11.626 18.6913 12.0135C19.0392 12.401 19.3016 12.8575 19.4614 13.3531C19.6213 13.8487 19.675 14.3724 19.6191 14.8902H12.2432ZM23.1355 17.7851V14.8902C23.1735 13.9258 23.0145 12.9638 22.6681 12.063C22.3217 11.1621 21.7953 10.3414 21.121 9.65099C20.4467 8.96055 19.6386 8.41491 18.7463 8.0474C17.854 7.6799 16.896 7.49826 15.9311 7.51358C12.5648 7.51358 8.72673 9.65795 8.72673 16.4985C8.72673 23.6607 12.8864 25.3762 16.4886 25.3762C17.6805 25.4164 18.8663 25.191 19.9603 24.7162C21.0543 24.2415 22.0291 23.5294 22.8139 22.6314L20.2623 20.487C19.2616 21.5305 17.8909 22.139 16.4457 22.1811C15.8771 22.221 15.3065 22.1366 14.7738 21.9337C14.2411 21.7308 13.759 21.4142 13.3611 21.006C12.9631 20.5978 12.6589 20.1078 12.4695 19.5701C12.2802 19.0324 12.2102 18.4598 12.2646 17.8923L23.1355 17.7851ZM25.9229 2.40999H29.4393V7.6208H31.9909V10.3013H29.4393V20.487C29.4393 21.452 29.8253 21.7951 30.6829 21.7951H31.9909V25.0974H30.1683C29.5945 25.1389 29.0185 25.0564 28.4794 24.8556C27.9403 24.6547 27.4508 24.3402 27.044 23.9333C26.6372 23.5265 26.3227 23.0369 26.1218 22.4977C25.921 21.9586 25.8385 21.3825 25.88 20.8087V10.4085H24.1218V7.6208H25.88L25.9229 2.40999ZM43.6766 14.2898C44.1943 14.2339 44.7179 14.2876 45.2135 14.4475C45.7091 14.6073 46.1655 14.8698 46.553 15.2177C46.9404 15.5656 47.2503 15.9912 47.4624 16.4668C47.6746 16.9424 47.7842 17.4573 47.7842 17.9781C47.7842 18.4989 47.6746 19.0138 47.4624 19.4894C47.2503 19.965 46.9404 20.3906 46.553 20.7385C46.1655 21.0864 45.7091 21.3489 45.2135 21.5087C44.7179 21.6686 44.1943 21.7223 43.6766 21.6664H37.9516V14.2898H43.6766ZM34.2422 25.1832H34.2637V25.2261L34.2422 25.1832ZM34.2637 25.1832H44.5771C45.4903 25.2015 46.3977 25.0327 47.2432 24.687C48.0887 24.3413 48.8544 23.8261 49.4932 23.1732C50.132 22.5202 50.6304 21.7434 50.9576 20.8905C51.2847 20.0376 51.4338 19.1267 51.3955 18.214C51.4822 16.9558 51.133 15.7061 50.4067 14.6751C49.6803 13.6442 48.6212 12.8947 47.4074 12.5528C48.4983 12.1801 49.4399 11.4656 50.0927 10.5154C50.7454 9.56515 51.0745 8.42977 51.031 7.2777C51.031 3.41784 48.5438 0.694499 43.7623 0.694499H34.2637V25.1832ZM43.3549 3.99682C43.8493 3.94214 44.3497 3.99233 44.8234 4.14412C45.2971 4.29592 45.7334 4.5459 46.104 4.87776C46.4745 5.20962 46.771 5.6159 46.9739 6.07008C47.1768 6.52426 47.2817 7.01612 47.2817 7.51358C47.2817 8.01104 47.1768 8.50291 46.9739 8.95709C46.771 9.41127 46.4745 9.81754 46.104 10.1494C45.7334 10.4813 45.2971 10.7312 44.8234 10.883C44.3497 11.0348 43.8493 11.085 43.3549 11.0303H37.9731V3.99682H43.3549ZM53.411 0.651611H56.9275V20.68C56.9275 21.4734 57.3777 21.8808 58.2354 21.8808H59.4361V25.1832H57.8923C55.3408 25.1832 53.411 24.0895 53.411 20.8944V0.651611ZM60.9156 7.6208H64.432V18.021C64.3944 18.4987 64.456 18.979 64.613 19.4317C64.77 19.8845 65.0189 20.2998 65.3441 20.6517C65.6693 21.0036 66.0638 21.2844 66.5028 21.4764C66.9418 21.6684 67.4157 21.7676 67.8949 21.7676C68.374 21.7676 68.8479 21.6684 69.2869 21.4764C69.7259 21.2844 70.1204 21.0036 70.4456 20.6517C70.7708 20.2998 71.0198 19.8845 71.1767 19.4317C71.3337 18.979 71.3953 18.4987 71.3577 18.021V7.6208H74.8741V25.0974H71.3577V23.2318C70.8229 23.9172 70.1354 24.4681 69.3498 24.8405C68.5643 25.2128 67.7026 25.3962 66.8335 25.3762C66.0473 25.3737 65.2695 25.2135 64.5464 24.9049C63.8232 24.5964 63.1693 24.1458 62.6235 23.5799C62.0776 23.014 61.6509 22.3443 61.3686 21.6104C61.0863 20.8765 60.9541 20.0935 60.9799 19.3076L60.9156 7.6208ZM80.2774 14.8902C80.2196 14.3738 80.2722 13.8509 80.4318 13.3564C80.5914 12.8618 80.8543 12.4069 81.203 12.0216C81.5517 11.6364 81.9783 11.3296 82.4546 11.1218C82.9308 10.9139 83.4458 10.8096 83.9653 10.8159C86.1095 10.8159 87.5461 12.2312 87.6533 14.8902H80.2774ZM91.1697 17.7851V14.8902C91.2077 13.9258 91.0487 12.9638 90.7023 12.063C90.3559 11.1621 89.8295 10.3414 89.1552 9.65099C88.4809 8.96055 87.6729 8.41491 86.7805 8.0474C85.8882 7.6799 84.9303 7.49826 83.9653 7.51358C80.599 7.51358 76.761 9.65795 76.761 16.4985C76.761 23.6607 80.9206 25.3762 84.5014 25.3762C85.6964 25.4026 86.8824 25.1623 87.9728 24.6727C89.0633 24.183 90.0309 23.4564 90.8052 22.5456L88.2537 20.4012C87.2529 21.4448 85.8822 22.0532 84.437 22.0953C83.8701 22.132 83.302 22.0452 82.772 21.8408C82.2419 21.6364 81.7625 21.3194 81.367 20.9115C80.9714 20.5037 80.6692 20.0149 80.481 19.4788C80.2929 18.9427 80.2234 18.3721 80.2774 17.8065L91.1697 17.7851ZM92.4561 7.40637C92.8675 7.41201 93.2601 7.57942 93.5491 7.87238C93.838 8.16533 93.9999 8.56028 93.9999 8.97176C93.9999 9.38124 93.8372 9.77395 93.5477 10.0635C93.2582 10.353 92.8655 10.5157 92.4561 10.5157C92.0447 10.5157 91.6498 10.3538 91.3568 10.0648C91.0639 9.77587 90.8965 9.3832 90.8909 8.97176C90.8909 8.55659 91.0558 8.15843 91.3493 7.86486C91.6429 7.5713 92.041 7.40637 92.4561 7.40637ZM93.6783 8.97176C93.674 8.73097 93.5988 8.4968 93.462 8.29863C93.3251 8.10047 93.1328 7.94715 92.9091 7.85792C92.6855 7.76868 92.4405 7.74752 92.2048 7.79707C91.9692 7.84663 91.7534 7.9647 91.5846 8.13646C91.4158 8.30823 91.3015 8.52603 91.2561 8.76252C91.2106 8.99902 91.2361 9.24367 91.3292 9.46577C91.4223 9.68787 91.5789 9.87751 91.7794 10.0109C91.9799 10.1443 92.2153 10.2155 92.4561 10.2155C92.6201 10.2217 92.7836 10.1936 92.9361 10.133C93.0887 10.0724 93.2269 9.98068 93.3419 9.86362C93.4569 9.74655 93.5463 9.60676 93.6042 9.45319C93.6621 9.29962 93.6873 9.13564 93.6783 8.97176ZM92.9033 9.05288C92.844 9.08182 92.7793 9.098 92.7134 9.10038L93.2065 9.76513H92.842L92.3274 9.03605H92.1559V9.76513H91.8557V8.0282H92.5418C92.9492 8.0282 93.1637 8.19975 93.1637 8.56429C93.1727 8.62965 93.1679 8.69618 93.1497 8.75958C93.1314 8.82298 93.1 8.88184 93.0576 8.93236C93.0151 8.98288 92.9626 9.02394 92.9033 9.05288ZM92.1773 8.30697V8.82161H92.3918C92.6276 8.82161 92.8635 8.82161 92.8635 8.56429C92.8635 8.30697 92.6705 8.30697 92.4561 8.30697H92.1773Z" fill="black"/>
</svg>
