<svg width="40" height="40" viewBox="0 0 40 40" fill="none" xmlns="http://www.w3.org/2000/svg">
<path d="M38.5885 13.9595C38.7141 13.8654 38.8357 13.7704 38.9548 13.6743C39.8891 16.4657 40.2025 19.4293 39.8729 22.3558C39.5432 25.2823 38.5786 28.1003 37.047 30.6111C35.5154 33.1218 33.4542 35.2639 31.009 36.8862C28.5638 38.5085 25.7941 39.5715 22.8955 40C26.4086 36.6277 29.0359 30.8211 29.3642 24.8342C29.7005 18.7029 27.0331 14.7448 21.9914 14.2063C14.3643 13.3913 6.44523 21.0188 3.06362 30.8013C1.16276 27.7588 0.107566 24.2599 0.00779665 20.6685C-0.0919726 17.0771 0.767328 13.5244 2.49631 10.3799C4.2253 7.23553 6.76081 4.61426 9.8391 2.78879C12.9174 0.963313 16.426 0.000327818 20 7.21888e-08C21.1373 -9.65248e-05 22.2724 0.0967504 23.3934 0.2895C22.6626 0.789974 22.0429 1.4371 21.573 2.19015C21.1032 2.94319 20.7936 3.78585 20.6636 4.66508C19.9148 8.14317 20.9653 11.7961 23.1318 12.2668C25.2983 12.7374 27.7621 9.84925 28.5102 6.372C28.9223 4.82252 28.78 3.17676 28.1082 1.722C30.0777 2.60169 31.893 3.79539 33.4839 5.257C33.1882 5.44158 32.8911 5.64275 32.5938 5.86533C28.9803 8.56942 26.9213 12.9225 28.5764 15.157C30.2314 17.3915 34.9749 16.6636 38.5885 13.9595ZM12.7942 14.8575C13.6321 13.8693 12.8844 11.8437 11.3669 10.5435C9.84939 9.24333 8.22867 9.24042 7.39033 10.2279C6.552 11.2154 6.81503 12.821 8.33329 14.1217C9.85154 15.4223 11.957 15.8449 12.7942 14.8575ZM17.658 12.5221C19.2871 11.7698 19.4811 8.6865 18.2797 6.0575C17.0784 3.4285 15.0124 2.4115 13.3833 3.16375C11.7542 3.916 11.1782 6.1525 12.3794 8.78042C13.5806 11.4083 16.0286 13.2737 17.658 12.5221ZM29.8454 29.8957C34.3379 26.7679 36.5364 27.623 36.5352 26.4726C36.5342 25.2047 33.0672 22.8044 30.6194 22.5815C30.6485 23.2645 30.6432 23.9717 30.6036 24.7032C30.5043 26.4532 30.2506 28.1908 29.8454 29.8957ZM10.6752 35.5333C10.6133 36.342 10.6515 37.1552 10.7887 37.9544C8.93659 36.9859 7.24624 35.7327 5.77865 34.2401C8.16757 25.2354 15.0051 16.4817 21.5822 17.1253C24.3352 17.3951 26.2343 19.8253 25.9444 25.1056C25.6094 31.2192 21.2186 40.1411 16.5754 39.8833C14.431 39.7647 13.7605 37.5641 13.9212 35.6197C14.2716 31.4058 16.4054 30.2471 16.5456 28.5401C16.5523 28.3333 16.5078 28.1281 16.416 27.9429C16.3242 27.7577 16.1881 27.5983 16.0198 27.4791C15.8516 27.3599 15.6565 27.2846 15.4522 27.26C15.2478 27.2354 15.0405 27.2622 14.8491 27.3381C13.5569 27.7527 10.9851 30.9671 10.6752 35.5333ZM22.925 21.4608C21.5904 21.5042 20.1509 23.8797 20.7257 25.1867C21.7802 26.8909 23.9812 24.6728 24.0179 22.8575C24.0271 22.4283 23.9988 21.4601 22.925 21.4608ZM35.9705 37.0734H36.3856L36.8008 38.0759L37.2159 37.0734H37.6308V38.7941H37.2159V37.9639L36.9377 38.6351H36.6641L36.3859 37.9639V38.7941H35.9708L35.9705 37.0734ZM34.4087 37.0734H35.7138V37.4608H35.2688V38.7941H34.8537V37.4608H34.4087V37.0734Z" fill="white"/>
</svg>
