<svg width="148" height="38" viewBox="0 0 148 38" fill="none" xmlns="http://www.w3.org/2000/svg">
<path fill-rule="evenodd" clip-rule="evenodd" d="M48.5693 26.0543C52.3133 26.0543 54.9841 24.0503 55.7949 20.8294L53.0049 20.2331C52.4802 22.3324 50.9063 23.597 48.5693 23.597C45.493 23.597 43.2038 21.4736 43.2038 17.5132C43.2038 13.5528 45.5169 11.4055 48.5693 11.4055C50.8824 11.4055 52.5756 12.7655 53.0525 15.0081L55.8188 14.4117C55.2225 11.0954 52.4325 8.97205 48.5693 8.97205C44.3007 8.97205 40.366 11.8111 40.366 17.5132C40.366 23.2152 44.2531 26.0543 48.5693 26.0543ZM57.6511 25.8635H60.2504V20.6624C60.2504 17.7279 61.4666 15.9862 63.4697 15.9862C65.0913 15.9862 66.093 16.9645 66.093 18.5629V25.8635H68.6923V17.9665C68.6923 15.342 66.9038 13.6483 64.1852 13.6483C62.492 13.6483 61.0851 14.4117 60.2504 15.9147V8.97205H57.6511V25.8635ZM82.9296 19.8513C82.9296 23.4539 80.3303 26.0544 76.7293 26.0544C73.1046 26.0544 70.5292 23.4539 70.5292 19.8513C70.5292 16.2487 73.1046 13.6483 76.7293 13.6483C80.3303 13.6483 82.9296 16.2487 82.9296 19.8513ZM76.7293 15.9148C74.5831 15.9148 73.1523 17.5371 73.1523 19.8513C73.1523 22.1656 74.5831 23.7878 76.7293 23.7878C78.8517 23.7878 80.3064 22.1656 80.3064 19.8513C80.3064 17.5371 78.8517 15.9148 76.7293 15.9148ZM87.1347 25.8635H89.5193L92.1186 17.4892L94.7183 25.8635H97.1267L100.823 13.8389H98.1753L95.9105 22.237L93.3346 13.8389H90.9263L88.327 22.237L86.0616 13.8389H83.4147L87.1347 25.8635ZM105.126 25.8634H102.48V9.16284H105.413L113.069 21.4497V9.16284H115.739V25.8634H112.806L105.126 13.6004V25.8634ZM123.907 26.0544C127.508 26.0544 130.107 23.4539 130.107 19.8513C130.107 16.2487 127.508 13.6483 123.907 13.6483C120.282 13.6483 117.707 16.2487 117.707 19.8513C117.707 23.4539 120.282 26.0544 123.907 26.0544ZM120.33 19.8513C120.33 17.5371 121.761 15.9148 123.907 15.9148C126.029 15.9148 127.484 17.5371 127.484 19.8513C127.484 22.1656 126.029 23.7878 123.907 23.7878C121.761 23.7878 120.33 22.1656 120.33 19.8513ZM136.697 25.8635H134.312L130.592 13.8389H133.239L135.505 22.237L138.104 13.8389H140.512L143.088 22.237L145.353 13.8389H148L144.304 25.8635H141.895L139.296 17.4892L136.697 25.8635Z" fill="black"/>
<mask id="mask0_1058_3247" style="mask-type:luminance" maskUnits="userSpaceOnUse" x="0" y="0" width="35" height="38">
<path d="M34.0991 0.529724H0.00012207V37.4703H34.0991V0.529724Z" fill="white"/>
</mask>
<g mask="url(#mask0_1058_3247)">
<path fill-rule="evenodd" clip-rule="evenodd" d="M17.0536 0.529724C26.4636 0.529724 34.0991 8.0628 34.0991 17.3544C34.0991 17.5768 34.0916 17.7993 34.0838 18.029L34.083 18.0515C34.0991 18.7961 34.0188 20.4674 33.232 22.6536C32.5174 24.7844 31.3853 26.7251 29.9241 28.3807C27.6037 31.2402 23.9907 34.3137 18.3944 37.1495C17.5514 37.5772 16.5478 37.5772 15.7048 37.1495C10.1086 34.3216 6.50358 31.2402 4.17519 28.3807C2.71391 26.7251 1.58182 24.7844 0.86725 22.6536C0.0804117 20.4595 0.00012207 18.7961 0.01618 18.0515L0.0161702 18.0512C0.00814452 17.8215 0.00012207 17.5919 0.00012207 17.3544C0.00012207 8.0628 7.63567 0.529724 17.0536 0.529724ZM10.039 9.78966C10.593 9.24314 11.4842 9.26691 12.0142 9.82935L15.6112 13.679L14.0535 15.3504L10.0872 11.7383C9.50915 11.2234 9.49305 10.3363 10.039 9.78966ZM26.2972 23.6659C26.3936 23.7531 26.538 23.7531 26.6264 23.6659C26.6906 23.5946 26.7067 23.4996 26.6666 23.4283C26.6666 23.4283 25.695 20.8461 24.3622 19.5311C23.5433 18.7231 22.5637 18.3191 21.6324 18.3033L21.5361 18.3017C20.6664 18.2878 20.1822 18.28 19.3039 17.6379C18.8963 17.3398 18.4208 16.6953 18.4208 16.6953L23.8564 11.7446C24.4265 11.2217 24.4505 10.3425 23.8965 9.7959C23.3426 9.24936 22.4514 9.27312 21.9214 9.83549C21.9214 9.83549 15.021 17.2535 14.575 17.6934C14.1288 18.1332 13.1056 18.3271 12.1261 18.3429C11.1466 18.3587 10.1028 18.7865 9.23567 19.642C7.61382 21.2421 6.73063 24.2046 8.03935 25.4957C9.34005 26.787 12.3429 25.9156 13.9647 24.3155C14.8319 23.46 15.2654 22.2085 15.2815 21.2421L15.2832 21.1373C15.2972 20.2416 15.3043 19.7886 15.8997 18.9608C16.2263 18.5067 16.9595 18.0181 16.9595 18.0181C16.9595 18.0181 17.6479 18.534 17.9632 18.9608C18.6223 19.853 18.6298 20.3001 18.6441 21.1503L18.6456 21.2421C18.6616 22.153 19.0711 23.1273 19.8901 23.9353C21.223 25.2502 23.8484 26.2166 23.8484 26.2166C23.9367 26.2403 24.033 26.2245 24.0973 26.1611C24.1856 26.0661 24.1856 25.9235 24.0973 25.8363L20.2995 22.5253C20.0667 22.2955 20.0667 21.9313 20.2995 21.7015C20.5324 21.4718 20.9018 21.4718 21.1346 21.7015L24.9002 25.0442C25.0607 25.2027 25.3338 25.2027 25.4943 25.0442C25.6549 24.8858 25.6549 24.6166 25.4943 24.4581L22.1061 20.743C21.8733 20.5133 21.8733 20.1489 22.1061 19.9192C22.3389 19.6895 22.7083 19.6895 22.9411 19.9192L26.2972 23.6659Z" fill="black"/>
</g>
</svg>
