<svg width="166" height="24" viewBox="0 0 166 24" fill="none" xmlns="http://www.w3.org/2000/svg">
<path d="M17.1104 15.4991L14.8456 0.974056H13.1722L8.64377 11.3843L3.98973 0.972871H2.33646L0.0515137 15.4991H2.52016L3.76455 6.79546L7.64233 15.4991H9.19368L12.9885 6.71369L14.1926 15.4991H17.1104ZM33.8232 15.4991L27.2114 0.974056H26.2111L19.3551 15.5003H21.9055L23.3348 12.2909H29.2925L30.7217 15.5003L33.8232 15.4991ZM28.4155 10.3758H24.1916L26.2727 5.66365L28.4155 10.3758ZM36.7612 0.974056V15.5003H39.679V9.08041C40.2503 9.18352 40.7812 9.24633 41.3738 9.24633L45.0465 15.5003H48.3104L44.2904 8.60635C45.8014 7.90712 46.7804 6.61058 46.7804 4.84117C46.7804 4.16208 46.5967 3.35974 46.2494 2.78376C45.2906 1.19923 43.7192 0.972871 42.0256 0.972871L36.7612 0.974056ZM39.679 2.96983H40.8831C42.4345 2.96983 43.8009 3.50433 43.8009 5.29507C43.8009 6.71487 42.7201 8.07304 39.9445 8.07304H39.679V2.96865V2.96983ZM60.5742 15.5003V13.4642H54.0856V0.971685H51.1464V15.4991L60.5742 15.5003ZM73.4922 15.5003V13.5247H66.5532V8.9773H71.8994V6.98034H66.5544V2.94731H72.6543V0.974056H63.6354V15.5003H73.4922ZM106.686 4.24504C106.381 1.28219 103.993 0.5 101.83 0.5C97.035 0.5 96.2801 3.60744 96.2801 5.06871C96.2801 7.59898 98.1763 8.85405 100.932 9.30677C102.279 9.53313 103.953 9.94556 103.953 11.6936C103.953 12.8254 103.034 14.1635 100.891 14.1635C100.177 14.1635 97.688 14.0402 96.5444 11.3037L95.7491 11.5917C95.9328 13.7522 97.3811 15.9329 101.137 15.9329C105.339 15.9329 106.952 13.3813 106.952 11.1177C106.952 9.01997 105.708 7.4141 101.932 6.69354C100.014 6.32377 99.1777 5.70632 99.1777 4.51288C99.1777 2.66051 101.177 2.24927 102.32 2.24927C102.829 2.24927 105.115 2.33223 105.85 4.45125L106.686 4.24504ZM109.807 0.974056V15.5003H112.725V9.05908C113.276 9.1207 113.807 9.20366 114.378 9.20366C116.99 9.20366 119.97 7.82416 119.97 4.79969C119.97 2.80391 118.622 0.971685 115.277 0.971685H109.807V0.974056ZM112.725 2.9485H114.052C115.357 2.9485 116.929 3.56596 116.929 5.39818C116.929 7.53736 114.582 8.09319 113.174 8.09319H112.725V2.94968V2.9485ZM134.92 8.19155C134.92 3.74373 132.339 0.946797 128.198 0.946797C123.807 0.946797 121.534 4.07438 121.534 8.26859C121.534 12.445 123.807 15.4944 128.159 15.4944C133.611 15.4944 134.92 11.0264 134.92 8.19155ZM131.973 8.19155C131.973 10.6969 131.281 13.6681 128.237 13.6681C125.156 13.6681 124.52 10.5215 124.52 8.01615C124.52 5.66602 125.385 2.7731 128.198 2.7731C131.165 2.7731 131.973 5.70513 131.973 8.19155ZM150.654 8.19155C150.654 3.74373 148.073 0.946797 143.932 0.946797C139.541 0.946797 137.267 4.07438 137.267 8.26859C137.267 12.445 139.541 15.4944 143.893 15.4944C149.345 15.4944 150.654 11.0264 150.654 8.19155ZM147.707 8.19155C147.707 10.6969 147.014 13.6681 143.97 13.6681C140.889 13.6681 140.253 10.5215 140.253 8.01615C140.253 5.66602 141.119 2.7731 143.932 2.7731C146.899 2.7731 147.707 5.70513 147.707 8.19155ZM165.946 15.6864V0.972871H163.551V9.78794L155.772 0.974056H153.144V15.5003H155.558V4.85539L165.178 15.6852H165.949L165.946 15.6864ZM88.0931 0.974056L83.0539 11.6107L78.9344 0.975241H75.7902L81.4291 15.1436C81.4291 15.1436 81.4327 15.3296 79.9358 17.5968C78.5208 19.7443 76.5937 21.605 73.9011 21.8669C71.3756 22.1134 68.6806 21.3122 66.7251 19.8711L66.2439 20.4814L66.5058 20.7493C68.0062 22.1987 71.0188 23.5 73.6202 23.5C75.5764 23.4924 77.4863 22.9037 79.1074 21.8088C80.7358 20.7114 81.883 19.1399 82.8951 17.4759C83.2009 16.9722 83.4877 16.4591 83.7757 15.9447C85.346 13.1383 90.9612 1.10442 91.0204 0.974056H88.0931Z" fill="black"/>
</svg>
