<svg width="80" height="22" viewBox="0 0 80 22" fill="none" xmlns="http://www.w3.org/2000/svg">
<path fill-rule="evenodd" clip-rule="evenodd" d="M5.71693 21.443H0V0.556959H5.3704V3.16764C8.21145 0.974893 10.4286 0 12.6115 0C14.4479 0 16.4919 0.800741 17.4274 3.13283C20.3379 0.905139 22.5552 0 24.738 0C27.3018 0 29.9697 1.5665 29.9697 6.26583V21.443H24.2531V8.28491C24.2531 6.54424 23.5253 5.84824 22.4166 5.84824C21.4464 5.84824 20.3379 6.47465 17.8431 8.42409V21.443H12.1264V8.28491C12.1264 6.54425 11.3987 5.84825 10.2904 5.84825C9.35484 5.84825 8.21145 6.47465 5.71693 8.45893V21.443ZM41.5762 22C44.3826 22 46.8079 20.9557 48.679 18.693V21.4428H54.1185V0.55715H48.679V3.30701C46.8079 1.04433 44.3826 0 41.5762 0C35.8944 0 31.1823 4.90815 31.1823 11C31.1823 17.0919 35.8944 22 41.5762 22ZM36.3101 11C36.3101 7.58861 39.047 4.83853 42.4425 4.83853C45.8377 4.83853 48.575 7.58861 48.575 11C48.575 14.4114 45.8377 17.1614 42.4425 17.1614C39.047 17.1615 36.3101 14.4114 36.3101 11ZM37.7305 11C37.7305 13.6454 39.844 15.7689 42.4425 15.7689C45.0411 15.7689 47.1546 13.6455 47.1546 11C47.1546 8.3545 45.0411 6.23105 42.4425 6.23105C39.844 6.23106 37.7305 8.3545 37.7305 11ZM55.1235 21.4433H62.0183C63.6466 18.7978 65.4827 16.3958 67.5964 14.1331C69.6753 16.3958 71.4075 18.7978 73.036 21.4433H80C77.6096 17.7883 75.0104 14.3071 71.8924 10.8613C74.9761 7.55407 77.6096 4.14265 80 0.557253H73.1747C71.4767 3.20272 69.6407 5.43059 67.5964 7.62366C65.5174 5.43059 63.6813 3.20272 62.0184 0.557253H55.1235C57.4794 4.24706 60.1473 7.55407 63.2657 10.8613C60.1473 14.3071 57.4794 17.8927 55.1235 21.4433Z" fill="black"/>
</svg>
