<svg width="148" height="22" viewBox="0 0 148 22" fill="none" xmlns="http://www.w3.org/2000/svg">
<path fill-rule="evenodd" clip-rule="evenodd" d="M21.2757 2.96259C21.1568 2.51678 20.9629 2.09323 20.7019 1.70917C20.5 1.41425 20.2534 1.15075 19.9707 0.927609C19.5625 0.61108 19.0961 0.373335 18.5965 0.227137C18.0589 0.0695657 17.4997 -0.00687156 16.9384 0.000484564C16.666 0.00112578 16.394 0.0184192 16.1239 0.0522629C15.5938 0.115158 15.0772 0.259243 14.5932 0.47919C13.9431 0.77496 13.387 1.23598 12.9833 1.8137C12.8027 2.07316 12.6558 2.35339 12.5459 2.64802C12.3964 3.02101 12.2999 3.41215 12.2591 3.81059C12.2371 4.13401 12.2368 4.47157 12.2364 4.80795V4.80797C12.2362 4.97962 12.236 5.15097 12.233 5.31997L12.2079 17.3208C12.2149 17.7738 12.2632 18.2253 12.3523 18.67C12.4432 19.1166 12.5968 19.5489 12.8087 19.9547C13.119 20.54 13.5898 21.03 14.1689 21.3703C14.5603 21.5985 14.9872 21.7635 15.4328 21.8587C15.9008 21.9586 16.379 22.0058 16.8581 21.9994C17.242 21.9995 17.625 21.9632 18.0016 21.891C18.5714 21.7837 19.1156 21.574 19.6065 21.2726C20.2583 20.8759 20.7759 20.3014 21.0951 19.6206C21.2767 19.2207 21.4036 18.7992 21.4723 18.3671C21.5389 17.926 21.5701 17.4804 21.5655 17.0346V5.57398C21.5689 5.12927 21.5428 4.68481 21.4873 4.24337C21.4533 3.81147 21.3825 3.38307 21.2757 2.96259ZM19.2284 17.1498C19.2154 17.4702 19.1721 17.7888 19.099 18.1014C19.0365 18.3685 18.9283 18.6235 18.779 18.8556C18.5976 19.1324 18.3466 19.3594 18.0498 19.515C17.9545 19.5726 17.8537 19.6211 17.7489 19.6596C17.4741 19.7581 17.1829 19.8055 16.8902 19.7993C16.7669 19.7995 16.6436 19.7923 16.5211 19.7778C16.138 19.7329 15.7716 19.5988 15.4528 19.3871C15.1021 19.1435 14.8467 18.7911 14.7286 18.3876C14.6513 18.125 14.5996 17.8558 14.5741 17.5836C14.536 17.1645 14.517 16.7473 14.52 16.3273L14.4929 4.98293V4.9829C14.4929 4.81487 14.4929 4.64391 14.511 4.47687C14.5359 4.16111 14.6051 3.85016 14.7166 3.55267C14.8219 3.27201 14.9886 3.017 15.2051 2.80531C15.3717 2.64058 15.5687 2.508 15.7859 2.41453C16.4234 2.14768 17.1421 2.13088 17.792 2.36763C18.0478 2.46225 18.2812 2.6065 18.4781 2.79163C18.5913 2.91048 18.6871 3.04395 18.763 3.18827C18.8835 3.42799 18.9731 3.68132 19.0298 3.94247C19.108 4.30566 19.1582 4.67401 19.1802 5.04447C19.2073 5.52318 19.2204 6.00481 19.2174 6.48547L19.2454 16.5187L19.2439 16.5985C19.2406 16.7822 19.2371 16.9664 19.2284 17.1498ZM132.84 17.3171L132.828 13.6858L135.255 13.6819L135.266 17.3054C135.271 17.6765 135.251 18.0476 135.205 18.4162C135.148 18.8631 135.025 19.2999 134.842 19.7136C134.584 20.2926 134.17 20.793 133.644 21.1624C133.263 21.4242 132.841 21.6223 132.394 21.7486C131.931 21.8786 131.455 21.9566 130.973 21.9811C130.817 21.9908 130.66 21.9967 130.5 21.9967C129.999 22.0016 129.5 21.9388 129.018 21.8101C128.202 21.5902 127.475 21.1344 126.931 20.5029C126.613 20.1325 126.37 19.7069 126.215 19.2485C126.096 18.8951 126.014 18.5307 125.971 18.1612C125.916 17.6874 125.879 14.9939 125.879 14.5162L125.852 5.4208C125.845 5.01439 125.853 4.60895 125.87 4.20157C125.886 3.83901 125.936 3.47863 126.019 3.12497C126.173 2.48271 126.504 1.89336 126.975 1.42019L127.076 1.3225C127.576 0.780849 128.225 0.389988 128.946 0.196075C129.379 0.0788305 129.825 0.0132203 130.274 0.000685051H130.49C131.057 -0.00299138 131.622 0.0780597 132.164 0.241015C132.492 0.338761 132.806 0.474558 133.1 0.645472C133.588 0.91621 134.001 1.29842 134.304 1.75919C134.538 2.12038 134.711 2.51634 134.814 2.93153C134.927 3.37505 134.988 3.82965 134.996 4.28656L135.007 7.74106L132.599 7.74692C132.605 6.80905 132.598 5.86824 132.581 4.92939C132.577 4.60016 132.558 4.27093 132.525 3.94365C132.507 3.75763 132.469 3.57396 132.412 3.39558C132.378 3.29694 132.335 3.2012 132.285 3.10934C132.119 2.78613 131.842 2.53037 131.501 2.38737C131.241 2.27627 130.96 2.21905 130.677 2.21934C130.367 2.21367 130.058 2.25151 129.76 2.33169C129.492 2.40017 129.243 2.52598 129.031 2.7C128.823 2.87776 128.657 3.09701 128.544 3.34283C128.421 3.61239 128.337 3.89706 128.294 4.18887C128.246 4.4969 128.223 4.80829 128.227 5.1199L128.255 15.1424C128.252 15.6504 128.261 16.1588 128.283 16.6674C128.298 17.0607 128.342 17.4525 128.414 17.8398C128.466 18.1212 128.551 18.3958 128.667 18.6585C128.77 18.8841 128.917 19.0876 129.101 19.2573C129.297 19.4305 129.53 19.5584 129.784 19.6315C130.051 19.7077 130.328 19.7484 130.606 19.7526H130.744C131.019 19.7543 131.294 19.7168 131.558 19.6413C131.813 19.5657 132.046 19.4317 132.237 19.2505C132.421 19.0662 132.562 18.8452 132.65 18.6028C132.747 18.3357 132.806 18.057 132.825 17.7743C132.84 17.6219 132.84 17.4715 132.84 17.3171ZM100.957 17.6835C100.959 17.826 100.952 17.9685 100.938 18.1104C100.916 18.3714 100.857 18.6282 100.762 18.8734C100.683 19.0812 100.557 19.2693 100.394 19.4244C100.147 19.6528 99.8192 19.7804 99.4784 19.781C99.2104 19.7807 98.9455 19.724 98.702 19.6149C98.3913 19.4705 98.1488 19.2162 98.024 18.9037L97.9808 18.806C97.9107 18.613 97.8685 18.4114 97.8554 18.2071C97.834 17.9375 97.8247 17.6688 97.8273 17.4011L97.8213 14.2505L95.4852 14.2583L95.4942 17.6913C95.4927 18.1196 95.533 18.5472 95.6146 18.9681C95.6978 19.3963 95.8447 19.8104 96.0509 20.1971C96.3912 20.8373 96.9397 21.3495 97.6107 21.6538C98.124 21.8846 98.6833 22.0024 99.2487 21.9986C99.6146 21.9982 99.9794 21.9599 100.337 21.8843C100.782 21.7923 101.206 21.62 101.586 21.3763C102.075 21.0577 102.473 20.623 102.742 20.1131C102.956 19.7082 103.109 19.2756 103.197 18.8284C103.285 18.3685 103.327 17.9012 103.321 17.4334V0.000678454L100.907 0.009471L100.957 17.6835ZM6.27815 18.1047C6.29201 17.9628 6.29837 17.8203 6.29721 17.6778L6.24605 0.00867008L8.66145 0.000854492V17.4335C8.6673 17.9018 8.6253 18.3694 8.53606 18.8296C8.44883 19.2766 8.29578 19.7089 8.08167 20.1133C7.81317 20.6233 7.41544 21.0581 6.92614 21.3765C6.54584 21.6198 6.12235 21.7921 5.67731 21.8845C5.31947 21.9606 4.95425 21.9989 4.58798 21.9988C4.02268 22.0016 3.46361 21.8839 2.94997 21.6539C2.27921 21.3494 1.73078 20.8372 1.39019 20.1973C1.1845 19.8101 1.03785 19.3958 0.954862 18.9673C0.872453 18.5465 0.831808 18.1189 0.833491 17.6905L0.824463 14.2575L3.16563 14.2506L3.17265 17.3915C3.16964 17.6602 3.17867 17.9279 3.19973 18.1985C3.21314 18.4025 3.25568 18.6038 3.32612 18.7964L3.36925 18.899C3.49395 19.211 3.73608 19.465 4.04632 19.6092C4.29017 19.7184 4.55533 19.775 4.8237 19.7753C5.16447 19.7744 5.49204 19.6469 5.7395 19.4187C5.90011 19.263 6.02372 19.0749 6.10161 18.8677C6.19683 18.6227 6.25626 18.3658 6.27815 18.1047ZM48.4124 19.6958C48.4073 19.7642 48.4003 19.8306 48.3893 19.899C48.3773 19.9615 48.3632 20.0211 48.3341 20.0827L49.8066 20.7773L49.2048 21.9594L47.8848 21.3078C47.8338 21.3787 47.7753 21.4442 47.7102 21.5031C47.6373 21.5689 47.5557 21.6248 47.4675 21.6692C47.3917 21.7079 47.3129 21.7406 47.2318 21.7669C47.1418 21.7962 47.0504 21.821 46.9579 21.8412C46.8446 21.8646 46.7292 21.8861 46.6129 21.9017C46.4674 21.9213 46.321 21.9359 46.1745 21.9467C45.9829 21.9613 45.7893 21.9721 45.5977 21.9789C45.342 21.9877 45.0862 21.9955 44.8294 21.9955H44.4452C44.2422 21.9988 44.0396 21.9977 43.836 21.9966H43.8357H43.8354H43.8351H43.8348H43.8345H43.8342H43.834C43.7324 21.9961 43.6306 21.9955 43.5284 21.9955C43.3087 21.9926 43.0881 21.9867 42.8684 21.9779C42.7079 21.9701 42.5504 21.9623 42.3919 21.9467C42.2716 21.9369 42.1532 21.9213 42.0348 21.9037C41.9406 21.889 41.8463 21.8705 41.754 21.848C41.6717 21.8259 41.5906 21.7995 41.5112 21.7689C41.4343 21.7363 41.3602 21.6977 41.2896 21.6536C41.2209 21.6093 41.157 21.5582 41.099 21.5012C41.0168 21.4224 40.9489 21.3306 40.8984 21.2296C40.8608 21.1591 40.8306 21.0851 40.8081 21.0088C40.7841 20.9257 40.7654 20.8412 40.7519 20.7558C40.7352 20.6542 40.7238 20.5518 40.7178 20.449C40.7048 20.3249 40.7048 20.1891 40.7048 20.0758C40.7048 19.9625 40.7078 19.8462 40.7138 19.7319C40.7188 19.644 40.7299 19.5561 40.7419 19.4672C40.7547 19.3936 40.7721 19.3208 40.7941 19.2493C40.8123 19.1857 40.8375 19.1241 40.8693 19.0657C40.9093 18.9926 40.9615 18.9266 41.0238 18.8703C41.0751 18.8221 41.1328 18.7807 41.1953 18.7472C41.2561 18.7138 41.3195 18.685 41.3849 18.6612C41.4611 18.6348 41.5413 18.6133 41.6186 18.5928C41.7189 18.5723 41.8192 18.5528 41.9195 18.5371L42.0108 18.5234C41.9491 18.5009 41.8893 18.4735 41.8322 18.4414C41.7777 18.4105 41.7266 18.3741 41.6798 18.3329C41.6194 18.2766 41.5695 18.2105 41.5323 18.1376C41.5031 18.0825 41.4802 18.0245 41.4641 17.9646C41.4446 17.8987 41.4302 17.8314 41.421 17.7634C41.4114 17.6951 41.4057 17.6194 41.4007 17.554L41.4007 17.5539L41.3969 17.5055C41.3909 17.4312 41.3909 17.357 41.3909 17.2817C41.3909 17.1792 41.3959 17.0746 41.4049 16.9769C41.4127 16.8923 41.4271 16.8084 41.4481 16.7259C41.4645 16.652 41.4887 16.58 41.5203 16.5109C41.5538 16.4352 41.5977 16.3642 41.6507 16.2999C41.7112 16.2284 41.7822 16.1659 41.8613 16.1143C41.9265 16.0732 41.9953 16.0379 42.0669 16.0088C42.1303 15.9839 42.1949 15.9624 42.2605 15.9443C42.3373 15.9231 42.4153 15.9067 42.4943 15.8955C42.5875 15.8798 42.6808 15.8691 42.7761 15.8622L42.8346 15.8577C42.944 15.8492 43.0524 15.8407 43.1623 15.8407C43.3559 15.8329 43.5495 15.8271 43.7431 15.8271C43.9637 15.8212 44.1824 15.8212 44.4011 15.8212H45.4042C45.6128 15.8222 45.8234 15.8271 46.0331 15.8339C46.1715 15.8368 46.3099 15.8437 46.4473 15.8534C46.5416 15.8603 46.6419 15.8701 46.7423 15.8837C46.8165 15.8955 46.8917 15.9082 46.9659 15.9248C47.0364 15.9397 47.1055 15.9603 47.1726 15.9863C47.2206 16.0077 47.2675 16.0315 47.313 16.0576C47.374 16.0933 47.4311 16.1349 47.4835 16.1817C47.5513 16.2459 47.6079 16.3205 47.651 16.4025C47.6824 16.4622 47.708 16.5247 47.7273 16.5891C47.7493 16.6615 47.7664 16.7353 47.7784 16.8099L47.7825 16.8356C47.7954 16.9173 47.8085 17.0003 47.8085 17.0834C47.8155 17.1997 47.8206 17.3179 47.8206 17.4351L47.8115 17.7888L46.1244 17.7937C46.1203 17.7106 46.1153 17.6295 46.1083 17.5475C46.1043 17.5016 46.0983 17.4556 46.0903 17.4117C46.086 17.3827 46.0786 17.3542 46.0682 17.3267C46.0608 17.3049 46.0492 17.2847 46.0341 17.2671C46.0269 17.2576 46.0188 17.2488 46.01 17.2407C45.9945 17.2291 45.9777 17.2193 45.9599 17.2114C45.9328 17.2 45.9045 17.1915 45.8756 17.186C45.8299 17.176 45.7837 17.1685 45.7372 17.1635L45.6968 17.1598C45.6338 17.1539 45.5703 17.1479 45.5075 17.1479C45.3811 17.1362 45.1273 17.1362 45.1273 17.1362H44.7762C44.681 17.137 44.5855 17.1384 44.49 17.1398C44.3461 17.1419 44.2021 17.144 44.058 17.144C43.9296 17.1479 43.8033 17.1518 43.6759 17.1587C43.6107 17.1616 43.5455 17.1655 43.4823 17.1733C43.4523 17.176 43.4225 17.1802 43.393 17.186L43.3649 17.1938C43.3347 17.2055 43.3064 17.2213 43.2807 17.2407C43.2489 17.2663 43.2252 17.3002 43.2125 17.3384C43.1997 17.3679 43.1919 17.3993 43.1894 17.4312C43.1879 17.453 43.1879 17.4749 43.1894 17.4967C43.1879 17.5256 43.1879 17.5547 43.1894 17.5836C43.1946 17.61 43.2023 17.6358 43.2125 17.6608C43.2275 17.6843 43.245 17.7062 43.2646 17.7263C43.2881 17.7452 43.3129 17.7625 43.3388 17.778C43.3769 17.8015 43.4165 17.8227 43.4572 17.8415L43.5746 17.8962L46.7844 19.3841L46.7944 19.3118L46.8115 19.0188V18.883V18.7491C46.8091 18.7029 46.8038 18.6569 46.7954 18.6114H48.4154C48.4254 18.6778 48.4254 18.7501 48.4254 18.8068V18.9748V19.4252C48.4234 19.5151 48.4194 19.604 48.4124 19.6958ZM46.1976 20.6229C46.2484 20.6179 46.2979 20.6043 46.344 20.5829H46.346L43.1483 19.2034C43.0814 19.2099 43.0145 19.2177 42.9476 19.2269C42.9005 19.2347 42.8554 19.2444 42.8092 19.2562C42.7744 19.2646 42.7407 19.2771 42.7089 19.2933C42.6769 19.3081 42.6482 19.329 42.6247 19.3548C42.6002 19.3805 42.5808 19.4103 42.5675 19.4428C42.5543 19.4744 42.5439 19.5071 42.5364 19.5405C42.528 19.587 42.5226 19.634 42.5203 19.6811C42.5113 19.7485 42.5113 19.816 42.5113 19.8843V19.9644V20.151C42.5145 20.195 42.5202 20.2387 42.5284 20.282C42.5344 20.3178 42.5455 20.3527 42.5615 20.3855C42.58 20.4295 42.6093 20.4684 42.6467 20.4988C42.6758 20.5212 42.7079 20.5396 42.742 20.5536C42.7815 20.5709 42.8225 20.5849 42.8644 20.5956L42.882 20.5989L42.882 20.5989L42.882 20.5989C42.933 20.6085 42.9826 20.6179 43.0339 20.6249C43.1142 20.6356 43.1964 20.6454 43.2777 20.6454C43.3987 20.6532 43.5201 20.6571 43.6418 20.6571H44.2035H44.2526H44.5114L45.0681 20.6483C45.1776 20.6479 45.2867 20.6464 45.3957 20.645H45.3959H45.396H45.3962H45.3964H45.3965H45.3967H45.3968H45.397C45.5273 20.6432 45.6575 20.6415 45.7883 20.6415C45.8302 20.641 45.8726 20.6393 45.915 20.6377L45.9152 20.6376C45.9651 20.6357 46.0153 20.6337 46.0652 20.6337L46.0698 20.6333L46.07 20.6333C46.1116 20.6305 46.1541 20.6276 46.1976 20.6229ZM33.4792 0.00158306H25.1848V21.9986H33.4792V19.7233L27.5791 19.7408L27.5601 11.6517L32.445 11.639L32.44 9.4184L27.5811 9.43305L27.5631 2.26908L33.4792 2.25247V0.00158306ZM88.2483 21.9986H79.9549V0.00158306H88.2483V2.25247L82.3332 2.26908L82.3513 9.43305L87.2101 9.4184L87.2141 11.639L82.3292 11.6517L82.3493 19.7408L88.2483 19.7233V21.9986ZM53.4591 2.29839L57.1525 2.27787V21.9986H59.616V2.27787L63.3404 2.26811V0.00158306H53.4591V2.29839ZM69.4086 9.36075H73.8874V0.00158306H76.3368V21.9976H73.9104V11.5745H69.4317V21.9976H66.9602V0.00158306H69.4086V9.36075ZM113.933 16.3831V15.6729L113.883 0.00263235H116.333V17.0426C116.343 17.494 116.309 17.9454 116.233 18.3908C116.153 18.8646 116.005 19.325 115.793 19.7585C115.533 20.2887 115.151 20.7529 114.676 21.1145C114.273 21.4158 113.815 21.6406 113.327 21.7769C112.146 22.1025 110.892 22.0705 109.73 21.685C109.345 21.5526 108.983 21.3645 108.656 21.1272C108.074 20.7054 107.631 20.1285 107.38 19.4664C107.231 19.0772 107.13 18.6722 107.079 18.2599C107.024 17.831 106.996 17.3994 106.994 16.9674C106.987 16.7475 106.987 16.5267 106.987 16.306L106.94 0.000678454H109.311L109.358 16.5297C109.354 16.8667 109.366 17.2126 109.392 17.5506C109.414 17.8443 109.469 18.1348 109.555 18.4171C109.629 18.6525 109.746 18.8729 109.9 19.0678C110.08 19.2878 110.318 19.4566 110.588 19.5563C110.837 19.6494 111.099 19.7054 111.366 19.7223C111.475 19.7311 111.588 19.736 111.697 19.736C112.036 19.7395 112.373 19.6808 112.69 19.5631C113.026 19.4411 113.314 19.2206 113.516 18.932C113.649 18.7616 113.743 18.5649 113.791 18.3556C113.844 18.1307 113.878 17.902 113.892 17.6717C113.919 17.2425 113.933 16.813 113.933 16.3831ZM119.957 0.00158306H122.232V21.9986H119.957V0.00158306ZM138.882 0.00158306H147.176V2.25247L141.26 2.26908L141.278 9.43305L146.137 9.41937L146.141 11.64L141.257 11.6517L141.277 19.7418L147.176 19.7233V21.9986H138.882V0.00158306Z" fill="black"/>
</svg>
