<svg width="96" height="26" viewBox="0 0 96 26" fill="none" xmlns="http://www.w3.org/2000/svg">
<path fill-rule="evenodd" clip-rule="evenodd" d="M5.45355 7.16233C5.45355 8.54883 6.62111 9.27853 10.2698 10.811C15.3779 12.9272 17.4941 14.4596 17.4941 18.6191C17.4941 22.8515 14.2103 25.6974 9.24817 25.6974C3.99411 25.6974 0.345459 22.1947 0.345459 17.0866V16.8677V16.7947C0.345459 16.6488 0.491405 16.5029 0.637351 16.5029H4.72384C4.86978 16.5029 5.01572 16.6488 5.01572 16.7947V17.0866C5.01572 19.4218 6.76709 21.1731 9.24817 21.1731C10.5617 21.1731 12.8238 20.8812 12.8238 18.6191C12.8238 17.0137 11.5833 16.3569 8.29949 15.1164L8.0806 15.0434C4.50491 13.6569 0.783297 12.1975 0.783297 7.16233C0.783297 2.92992 3.92113 0.156949 8.73735 0.229922C13.5536 0.229922 16.9103 3.5137 16.9103 8.18396C16.9103 8.3299 16.7644 8.47584 16.6184 8.47584H12.6049C12.4589 8.47584 12.313 8.3299 12.313 8.18396C12.313 5.55694 10.4887 4.68126 8.8103 4.68126C7.20492 4.68126 5.45355 5.33801 5.45355 7.16233ZM58.139 0.228516C59.5252 0.228516 60.6928 1.32311 60.6928 2.78256C60.6928 4.16903 59.5984 5.3366 58.139 5.3366C56.7523 5.3366 55.5847 4.16903 55.5847 2.78256C55.5847 1.39608 56.7523 0.228516 58.139 0.228516ZM28.1478 21.1741C25.7396 21.1741 23.6964 19.0579 23.6964 16.5039C23.6964 13.9498 25.6667 11.8336 28.1478 11.8336C30.5558 11.8336 32.5991 13.9498 32.5991 16.5039C32.5991 19.0579 30.5558 21.1741 28.1478 21.1741ZM19.0261 16.5039C19.0261 21.612 23.1126 25.7714 28.1478 25.7714C33.1829 25.7714 37.2694 21.612 37.2694 16.5039C37.2694 11.3958 33.1829 7.23633 28.1478 7.23633C23.1126 7.23633 19.0261 11.3958 19.0261 16.5039ZM59.9636 7.52539H56.2421C55.9503 7.52539 55.8044 7.74432 55.8044 8.0362V24.8929C55.8044 25 55.8436 25.0678 55.8933 25.1539C55.9114 25.1852 55.9308 25.2189 55.9503 25.2578C56.0231 25.3308 56.1694 25.4037 56.3153 25.4037H60.0368C60.3286 25.4037 60.4745 25.1848 60.4745 24.8929V8.0362C60.4745 7.92918 60.4353 7.86141 60.3856 7.7753C60.3676 7.74399 60.3481 7.71026 60.3286 7.67133C60.2558 7.52539 60.1099 7.52539 59.9636 7.52539ZM39.6777 0.598363C39.3859 0.598363 39.24 0.817283 39.24 1.10917V24.8983C39.24 25.0049 39.279 25.0726 39.3284 25.1582L39.3285 25.1583L39.3285 25.1584C39.3467 25.19 39.3663 25.2239 39.3859 25.2632C39.459 25.3361 39.6049 25.4091 39.7508 25.4091H43.4723C43.7641 25.4091 43.9104 25.1902 43.9104 24.8983V15.3389H52.156C52.2631 15.3389 52.3308 15.2998 52.4167 15.2502C52.4481 15.232 52.4819 15.2125 52.521 15.1929C52.5941 15.047 52.5941 14.901 52.5941 14.8281V11.3254C52.5941 11.0335 52.3751 10.8145 52.156 10.8145H43.9104V5.0497H53.1777C53.2846 5.0497 53.3524 5.01054 53.4384 4.96091C53.4698 4.94279 53.5037 4.92327 53.5427 4.90376C53.6158 4.83077 53.6886 4.68483 53.6886 4.53889V1.0362C53.6886 0.744308 53.4695 0.525391 53.2509 0.525391L39.6777 0.598363ZM94.4062 24.1641V24.5289H94.5521C94.698 24.5289 94.698 24.4559 94.698 24.383C94.698 24.31 94.6253 24.237 94.5521 24.237L94.4062 24.1641ZM94.8439 24.6749L95.1361 25.1856H94.8439L94.6253 24.7478H94.4794V25.1856H94.1872V23.9451H94.6253C94.9171 23.9451 95.063 24.0911 95.063 24.31L95.0607 24.3145C94.9884 24.4589 94.9163 24.6026 94.8439 24.6749ZM94.5521 25.4776C95.063 25.4776 95.4279 25.0397 95.4279 24.5289C95.4279 24.0181 95.063 23.5803 94.5521 23.5803C94.0413 23.5803 93.6763 23.9451 93.6763 24.5289C93.6763 25.0397 94.0413 25.4776 94.5521 25.4776ZM94.5521 25.6965C93.8954 25.6965 93.3845 25.1857 93.3845 24.5289C93.3845 23.8721 93.8226 23.3613 94.5521 23.3613C95.2089 23.3613 95.6466 23.8721 95.6466 24.5289C95.7197 25.1857 95.282 25.6965 94.5521 25.6965ZM89.7371 8.25763C87.5477 8.25763 85.7234 6.5063 85.7234 4.24412C85.7234 1.98198 87.5477 0.157658 89.7371 0.230631C91.9264 0.230631 93.7503 2.05495 93.7503 4.24412C93.7503 6.43331 91.9264 8.25763 89.7371 8.25763ZM89.7371 7.16305C91.3424 7.16305 92.6559 5.84954 92.6559 4.24412C92.6559 2.63873 91.3424 1.25225 89.7371 1.25225C88.1317 1.25225 86.8182 2.63873 86.8182 4.24412C86.8182 5.84954 88.1317 7.16305 89.7371 7.16305ZM89.7371 8.91602C87.5477 8.91602 85.7234 10.7403 85.7234 12.9295C85.7234 15.1187 87.5477 16.943 89.7371 16.943C91.9264 16.943 93.7503 15.1187 93.7503 12.9295C93.7503 10.7403 91.9264 8.91602 89.7371 8.91602ZM85.7234 21.6092C85.7234 19.42 87.5477 17.5957 89.7371 17.5957C91.9264 17.5957 93.7503 19.42 93.7503 21.6092C93.7503 23.7984 91.9264 25.6227 89.7371 25.6227C87.5477 25.6227 85.7234 23.8714 85.7234 21.6092ZM77.113 12.9295C77.113 15.1917 78.9374 16.943 81.1267 16.943C83.316 16.943 85.1404 15.1187 85.1404 12.9295C85.1404 10.7403 83.316 8.91602 81.1267 8.91602C78.8646 8.91602 77.113 10.7403 77.113 12.9295ZM83.1701 10.8863C83.7537 11.4701 84.0455 12.1998 84.0455 13.0025C84.0455 14.6079 82.732 15.9214 81.1267 15.9214C80.3241 15.9214 79.5942 15.6295 79.0833 15.0457C78.4997 14.462 78.2079 13.7322 78.2079 12.9295C78.2079 11.3241 79.5214 9.93764 81.1267 9.93764C81.8562 10.0106 82.6593 10.3025 83.1701 10.8863ZM72.4427 8.91602C74.632 8.91602 76.4564 10.6673 76.4564 12.9295C76.4564 15.1917 74.7052 17.016 72.4427 16.943C70.2538 16.943 68.4294 15.1187 68.4294 12.9295C68.4294 10.7403 70.2538 8.91602 72.4427 8.91602ZM85.1404 4.24202C85.1404 1.97986 83.316 0.228516 81.1267 0.228516C78.9374 0.228516 77.113 2.05283 77.113 4.24202C77.113 6.43121 78.9374 8.25553 81.1267 8.25553C83.316 8.25553 85.1404 6.50416 85.1404 4.24202ZM72.4427 0.228516C74.632 0.228516 76.4564 1.97986 76.4564 4.24202C76.4564 6.50416 74.7052 8.25553 72.4427 8.25553C70.2538 8.25553 68.4294 6.43121 68.4294 4.24202C68.4294 2.05283 70.2538 0.228516 72.4427 0.228516ZM85.1404 21.6873C85.1404 19.4252 83.316 17.6738 81.1267 17.6738C78.9374 17.6738 77.113 19.4981 77.113 21.6873C77.113 23.9495 78.9374 25.7009 81.1267 25.7009C83.316 25.7009 85.1404 23.8765 85.1404 21.6873ZM72.4427 25.6952C70.2538 25.6952 68.4294 23.9438 68.4294 21.6816C68.4294 19.4195 70.2538 17.5952 72.4427 17.6681C74.632 17.6681 76.4564 19.4925 76.4564 21.6816C76.4564 23.8708 74.632 25.6952 72.4427 25.6952ZM75.4347 21.6816C75.4347 20.8789 75.1429 20.1492 74.5593 19.5654C73.9753 19.0546 73.2458 18.6898 72.5159 18.6898C70.9106 18.6898 69.597 20.0763 69.597 21.6816C69.597 23.287 70.9106 24.6005 72.5159 24.6005C74.1212 24.6005 75.4347 23.287 75.4347 21.6816Z" fill="black"/>
</svg>
