<svg width="96" height="24"  fill="none" xmlns="http://www.w3.org/2000/svg">
<path fill-rule="evenodd" clip-rule="evenodd" d="M46.5946 12.7878C48.8101 12.7878 49.4943 12.1054 49.4943 9.75311C49.4943 7.40455 48.8119 6.72031 46.5946 6.72031H45.2817V12.7878H46.5946ZM72.7783 12.7878C74.6112 12.7878 75.2935 12.1054 75.2935 9.75311C75.2935 7.40455 74.6112 6.72031 72.7783 6.72031H71.5747V12.7878H72.7783ZM21.1024 3.9797H18.04L18.0474 15.2714H17.9938L13.857 3.9797H10.7132V23.7207H13.7737V11.3897H13.8292L18.1436 23.7207H21.1024V3.9797ZM93.1814 23.6781V20.7193H87.1103V14.9348H91.4859V11.976H87.1103V6.89046H92.7985V3.93162H83.7209V23.6781H93.1814ZM31.3696 23.9925C34.5448 23.9925 36.7325 22.1877 36.7325 18.9348C36.7325 15.9445 34.5873 14.1207 32.6912 12.5086C31.189 11.2314 29.8431 10.0871 29.8439 8.60102C29.8439 7.36941 30.445 6.65928 31.5379 6.65928C32.3035 6.65928 33.2059 7.15118 33.3427 8.847L36.5642 8.49006C36.2627 5.70323 34.6224 3.706 31.8615 3.706C28.5273 3.706 26.6133 5.48315 26.6133 8.62691C26.6133 11.7184 28.6684 13.4315 30.534 14.9865C32.0843 16.2788 33.5036 17.4619 33.5036 19.2362C33.5036 20.4105 32.7103 21.0392 31.5342 21.0392C30.4357 21.0392 29.6479 20.0536 29.511 18.0601L26.2841 18.5224C26.4191 21.4775 28.2258 23.9925 31.3696 23.9925ZM41.8938 3.93162H46.7611C50.9421 3.93162 52.8875 5.54233 52.8875 9.75496C52.8875 13.9676 50.9461 15.5783 46.7629 15.5783H45.2835V23.6726H41.8938V3.93162ZM72.9522 3.92977C76.745 3.92977 78.6849 5.54418 78.6849 9.75311C78.6849 12.9265 77.4553 14.2117 76.3052 14.7332L79.1753 23.6726H75.7299L73.3261 15.497C72.7448 15.5548 72.1605 15.582 71.5767 15.5783V23.6708H68.1867V3.92977H72.9522ZM60.7471 8.88398C63.2603 7.5636 63.3362 5.35369 62.7204 3.01807C62.2726 1.34818 61.4683 0.606618 60.7765 0.194231C60.5581 0.0683169 60.3097 0.00204791 60.0573 0.00204791C59.8048 0.00204791 59.5569 0.0683169 59.338 0.194231C58.6517 0.582581 57.794 1.36482 57.4131 3.02917C56.8693 5.36849 56.9043 7.5636 59.3935 8.85809L59.1716 16.8099L58.8851 22.9976C58.8646 23.5376 59.447 24.0018 60.1592 23.9962C60.871 23.9907 61.4573 23.5283 61.4258 22.9884L61.047 16.7748L60.7471 8.88398ZM4.52551 5.50164L4.49407 0.652854C4.48751 0.520795 4.44252 0.393532 4.36463 0.286695C4.3267 0.243982 4.27702 0.213405 4.2218 0.19879C4.16659 0.184174 4.10829 0.186171 4.0542 0.204529C4.00011 0.222887 3.95264 0.256792 3.91773 0.301999C3.88281 0.347205 3.86201 0.401705 3.85792 0.458678L3.88196 4.31257H3.27355L3.24951 0.290394C3.25259 0.253433 3.24797 0.216236 3.23593 0.181154C3.2239 0.146071 3.20472 0.113866 3.17961 0.0865742C3.15449 0.0592823 3.12399 0.0374973 3.09003 0.0225957C3.05607 0.00769402 3.01938 0 2.98229 0C2.94521 0 2.90852 0.00769402 2.87455 0.0225957C2.84059 0.0374973 2.81009 0.0592823 2.78498 0.0865742C2.75986 0.113866 2.74068 0.146071 2.72865 0.181154C2.71662 0.216236 2.71199 0.253433 2.71507 0.290394L2.74281 4.31441H2.1381L2.11221 0.288544C2.10663 0.221511 2.07606 0.159025 2.02656 0.113477C1.97706 0.0679296 1.91225 0.0426487 1.84499 0.0426487C1.77772 0.0426487 1.71292 0.0679296 1.66342 0.113477C1.61392 0.159025 1.58335 0.221511 1.57777 0.288544L1.60366 4.31626H0.998945L0.978601 0.490115C0.980091 0.431866 0.961607 0.374861 0.926213 0.328574C0.890817 0.282287 0.840649 0.249507 0.784045 0.235679C0.727441 0.221853 0.66781 0.227812 0.615062 0.252569C0.562314 0.277324 0.519626 0.319386 0.494093 0.371762C0.436319 0.467454 0.403862 0.576283 0.39978 0.687988V5.46281C0.404632 5.74192 0.51963 6.00784 0.719705 6.20252L1.82002 7.2381L1.67393 14.7535L1.489 23.0753C1.45757 23.5764 1.96427 24.0055 2.59857 23.9999C3.23287 23.9944 3.73772 23.5561 3.70813 23.0475L3.38451 14.7369L3.08123 7.30098L4.19079 6.25616C4.29791 6.16214 4.38331 6.04597 4.44111 5.91571C4.4989 5.78541 4.5277 5.64415 4.52551 5.50164ZM94.3607 22.6202C94.2862 22.7315 94.2467 22.8624 94.2467 22.9962C94.2462 23.0852 94.2637 23.1733 94.2977 23.2556C94.3317 23.3378 94.3811 23.4125 94.4441 23.4754C94.5071 23.5383 94.5816 23.5881 94.6641 23.622C94.746 23.656 94.8345 23.6733 94.9235 23.6731C95.0574 23.6731 95.1879 23.6334 95.2994 23.559C95.4108 23.4846 95.4973 23.3789 95.5488 23.2553C95.5998 23.1316 95.6133 22.9955 95.5873 22.8642C95.5613 22.7329 95.4968 22.6123 95.4018 22.5176C95.3074 22.423 95.1869 22.3585 95.0554 22.3324C94.924 22.3063 94.788 22.3197 94.6646 22.3709C94.5406 22.4222 94.4351 22.5089 94.3607 22.6202ZM94.4441 23.3164C94.3811 23.2216 94.3477 23.1102 94.3482 22.9962C94.3482 22.8442 94.4086 22.6984 94.5161 22.5909C94.6236 22.4833 94.7695 22.423 94.9215 22.423C95.0354 22.4226 95.1469 22.4561 95.2419 22.5191C95.3364 22.5822 95.4103 22.672 95.4543 22.7772C95.4983 22.8823 95.5098 22.9981 95.4873 23.1099C95.4653 23.2216 95.4103 23.3242 95.3299 23.4048C95.2494 23.4853 95.1469 23.5401 95.035 23.5623C94.9235 23.5844 94.8075 23.5729 94.7026 23.5291C94.5971 23.4853 94.5076 23.4113 94.4441 23.3164ZM94.77 23.0795H94.903L95.1099 23.3864H95.2379L95.0304 23.0776C95.0859 23.0704 95.1369 23.043 95.1734 23.0007C95.2099 22.9584 95.2294 22.9042 95.2284 22.8483C95.2284 22.8159 95.2219 22.7839 95.2094 22.7542C95.1964 22.7244 95.1774 22.6976 95.1539 22.6754C95.1304 22.6533 95.1024 22.6362 95.0719 22.6252C95.0415 22.6142 95.0095 22.6096 94.977 22.6116H94.6606V23.3864H94.77V23.0795ZM94.768 22.9833V22.7096H94.975C94.994 22.7091 95.0125 22.7124 95.0294 22.7193C95.0469 22.7261 95.0624 22.7365 95.0754 22.7496C95.0889 22.7628 95.0989 22.7785 95.1059 22.7957C95.1129 22.813 95.1164 22.8315 95.1154 22.8501C95.1154 22.8682 95.1114 22.886 95.1044 22.9026C95.0969 22.9191 95.0864 22.934 95.0734 22.9464C95.0604 22.9588 95.0449 22.9685 95.0279 22.9748C95.011 22.9811 94.993 22.984 94.975 22.9833H94.768Z" fill="white"/>
</svg>
