<svg width="36" height="40" viewBox="0 0 36 40" fill="none" xmlns="http://www.w3.org/2000/svg">
<path fill-rule="evenodd" clip-rule="evenodd" d="M18 40C25.1008 40 30.234 39.5112 33.2261 37.8012C35.022 36.7773 35.931 35.3813 35.9304 34.3805C35.9304 33.8105 35.6315 33.4846 34.9639 33.4846H1.03544C0.368489 33.4846 0.0689697 33.8105 0.0689697 34.3805C0.0689697 35.3813 0.978006 36.7773 2.77391 37.8012C5.76604 39.5112 10.8992 40 18 40ZM1.03544 11.2739H34.9639C35.6315 11.2739 35.931 10.9249 35.931 10.2969C35.931 6.57345 30.2803 0 18 0C5.60485 0 0.0689697 6.57345 0.0689697 10.2969C0.0689697 10.9249 0.368489 11.2739 1.03544 11.2739ZM7.18184 26.318C7.18184 26.3642 7.19295 26.4691 7.29671 26.6321C7.57336 27.0622 8.33296 27.9931 8.97769 28.7042C9.48409 29.2623 9.74905 29.7281 9.74905 30.3561C9.74905 31.3682 8.85112 32.3109 7.78088 32.3109C7.14786 32.3109 6.54945 31.9731 6.06587 31.4381C5.35195 30.6352 4.58124 29.2742 4.31633 28.6343C4.30935 28.6201 4.30235 28.6037 4.29485 28.5861C4.25324 28.4887 4.19618 28.3552 4.04027 28.3552C3.90194 28.3552 3.8445 28.4595 3.8445 28.5993V30.2512C3.8445 31.3919 3.17691 32.3109 1.96834 32.3109C0.748024 32.3109 0.0921631 31.3912 0.0921631 30.2512V23.0841C0.0921631 21.9435 0.748617 21.0245 1.96834 21.0245C3.17691 21.0245 3.8445 21.9441 3.8445 23.0841V24.2478C3.8445 24.3989 3.90194 24.4919 4.04027 24.4919C4.12057 24.4919 4.17795 24.4688 4.28171 24.3639C4.69552 23.9563 5.34025 22.9324 5.88122 22.0483C6.28386 21.3853 6.88231 21.0245 7.51529 21.0245C8.50527 21.0245 9.41431 21.8161 9.41431 22.8281C9.41431 23.2233 9.27598 23.7003 8.94248 24.2241C8.50527 24.9102 7.71105 25.6663 7.38871 25.9691C7.25098 26.097 7.18184 26.1901 7.18184 26.318ZM21.6491 20.3609C23.4561 20.3609 24.5955 19.1971 24.5955 17.499C24.5955 16.417 23.9508 15.6722 22.6619 15.6722H22.2938C21.6145 15.6722 21.0853 15.9981 21.0853 16.7311C21.0853 17.3829 21.6491 17.6969 22.0752 17.6969C22.2938 17.6969 22.4322 17.7668 22.4322 17.9298C22.4322 18.1389 22.1907 18.2788 21.9141 18.2788C21.0507 18.2788 20.464 17.6619 20.464 16.5101C20.464 15.2302 21.2699 14.7651 21.8912 14.7651C22.3052 14.7651 22.5312 14.8827 22.7368 14.9897C22.9084 15.079 23.0659 15.1609 23.3066 15.1609C23.9168 15.1609 24.3312 14.649 24.3312 14.1139C24.3312 13.7181 24.1583 13.416 23.894 13.2062C23.4104 12.8453 22.7317 12.5781 21.7189 12.5781C19.9347 12.5781 18.1969 13.7649 18.1969 16.5107C18.1963 19.1391 19.9341 20.3609 21.6491 20.3609ZM3.03823 20.2909H1.41527C0.506225 20.2909 0.0689697 19.7558 0.0689697 19.0341V13.9035C0.0689697 13.1824 0.506225 12.6467 1.41527 12.6467H2.78503C4.23509 12.6467 5.16759 13.3915 5.16759 14.7875C5.16759 15.3812 4.94896 15.7883 4.73038 16.0442C4.71778 16.0596 4.70629 16.0726 4.69601 16.0843C4.65942 16.126 4.63832 16.15 4.63832 16.1953C4.63832 16.2416 4.69433 16.2872 4.75104 16.3334L4.75319 16.3352L4.76725 16.347C4.92797 16.4813 5.50109 16.9602 5.50109 17.964C5.50109 19.2551 4.56918 20.2909 3.03823 20.2909ZM2.38239 14.3804C2.18662 14.3804 2.09457 14.4972 2.09457 14.6483V15.4393C2.09457 15.591 2.18662 15.7071 2.38239 15.7071H2.53183C3.02711 15.7071 3.17656 15.3113 3.17656 15.0322C3.17656 14.7294 3.02647 14.3804 2.53183 14.3804H2.38239ZM2.38239 17.1031C2.18662 17.1031 2.09457 17.2198 2.09457 17.3709V18.2781C2.09457 18.4298 2.18662 18.5459 2.38239 18.5459H2.58926C3.14134 18.5459 3.30254 18.1157 3.30254 17.8129C3.30254 17.4752 3.14199 17.1031 2.58926 17.1031H2.38239ZM31.4659 20.3489C32.2027 20.3489 32.6053 19.7901 32.6053 19.0922V17.8591C32.6053 17.708 32.6745 17.6381 32.7894 17.6381C32.9277 17.6381 32.9734 17.7193 32.9963 17.8591C33.1 18.4522 33.3761 19.2551 33.6867 19.6628C34.0782 20.1866 34.4463 20.3495 34.8144 20.3495C35.4128 20.3495 35.9309 19.8725 35.9309 19.2788C35.9309 18.883 35.7697 18.5921 35.5628 18.3249C35.1713 17.8248 34.9299 17.4989 34.7804 17.0918C34.7458 16.9988 34.7687 16.917 34.8724 16.8359C35.2294 16.5568 35.6437 15.94 35.6437 14.9629C35.6437 13.4852 34.4352 12.6473 32.9734 12.6473H31.6728C30.7638 12.6473 30.3265 13.1824 30.3265 13.9041V19.0934C30.3265 19.7908 30.7292 20.3489 31.4659 20.3489ZM32.4787 14.8462C32.4787 14.6951 32.5708 14.5783 32.7665 14.5783H32.9277C33.4113 14.5783 33.5607 14.9273 33.5607 15.2301C33.5607 15.5211 33.4113 15.905 32.9277 15.905H32.7665C32.5708 15.905 32.4787 15.7889 32.4787 15.6372V14.8462ZM10.5535 23.2224C10.5535 22.0006 11.2557 21.0236 12.5445 21.0236C13.834 21.0236 14.5356 22.0012 14.5356 23.2224V30.1105C14.5356 31.3323 13.8334 32.3093 12.5445 32.3093C11.2557 32.3093 10.5535 31.3323 10.5535 30.1105V23.2224ZM33.0071 25.5032H32.4433C31.4305 25.5032 30.648 25.9802 30.648 27.0271C30.648 27.9811 31.4996 28.435 32.1326 28.435C32.4433 28.435 32.6619 28.528 32.6619 28.7721C32.6619 29.0749 32.2938 29.2722 31.9023 29.2722C30.6017 29.2722 29.7155 28.3763 29.7155 26.7125C29.7155 24.8626 30.924 24.1877 31.8559 24.1877C32.4769 24.1877 32.8141 24.3606 33.121 24.5178C33.3772 24.6492 33.6122 24.7696 33.9736 24.7696C34.8944 24.7696 35.5157 24.0136 35.5157 23.2456C35.5157 22.6756 35.2625 22.2336 34.8598 21.9308C34.1577 21.407 33.0991 21.0231 31.6027 21.0231C28.9213 21.0231 26.3083 22.7331 26.3083 26.7125C26.3083 30.5171 28.9207 32.297 31.499 32.297C34.2033 32.297 35.9183 30.6101 35.9183 28.1434C35.9189 26.5851 34.9524 25.5032 33.0071 25.5032ZM29.809 19.209C29.809 19.907 29.3026 20.291 28.6579 20.291V20.2897H26.4828C25.5737 20.2897 25.1365 19.754 25.1365 19.033V13.9023C25.1365 13.1806 25.5737 12.6456 26.4828 12.6456H28.6579C29.3026 12.6456 29.809 13.0295 29.809 13.7163C29.809 14.4143 29.3026 14.7982 28.6579 14.7982H27.6222C27.4264 14.7982 27.3344 14.915 27.3344 15.066V15.2521C27.3344 15.4038 27.4264 15.5199 27.6222 15.5199H28.4164C28.9691 15.5199 29.4064 15.8577 29.4064 16.4508C29.4064 17.0445 28.9691 17.3816 28.4164 17.3816H27.6222C27.4264 17.3816 27.3344 17.4984 27.3344 17.6495V17.8705C27.3344 18.0222 27.4264 18.1383 27.6222 18.1383H28.6579C29.3026 18.1383 29.809 18.5223 29.809 19.209ZM8.88454 20.3493C10.749 20.3493 11.7389 19.2205 11.7389 17.8015V13.8808C11.7389 13.1828 11.3363 12.624 10.5995 12.624C9.86277 12.624 9.46013 13.1828 9.46013 13.8808V17.6735C9.46013 17.9526 9.29893 18.2785 8.88454 18.2785C8.47014 18.2785 8.33181 17.9526 8.33181 17.6735V13.8808C8.33181 13.1828 7.91742 12.624 7.18069 12.624C6.4439 12.624 6.04126 13.1828 6.04126 13.8808V17.8015C6.0419 19.2212 7.02013 20.3493 8.88454 20.3493ZM18.0809 19.2782C18.0809 19.8719 17.5627 20.3489 16.9643 20.3489C16.5956 20.3489 16.2275 20.186 15.836 19.6634C15.5253 19.2557 15.2493 18.4529 15.1456 17.8598C15.1227 17.7199 15.077 17.6388 14.9387 17.6388C14.8238 17.6388 14.7546 17.7087 14.7546 17.8598V19.0928C14.7546 19.7908 14.352 20.3495 13.6152 20.3495C12.8785 20.3495 12.4758 19.7908 12.4758 19.0928V13.9035C12.4758 13.1818 12.913 12.6467 13.8221 12.6467H15.1233C16.5851 12.6467 17.7937 13.4845 17.7937 14.9623C17.7937 15.9394 17.3793 16.5562 17.0223 16.8353C16.9186 16.9164 16.8957 16.9982 16.9303 17.0912C17.0714 17.4755 17.3462 17.8392 17.6572 18.2506L17.7128 18.3243C17.9197 18.5915 18.0809 18.8824 18.0809 19.2782ZM14.9152 15.9044H15.0764C15.56 15.9044 15.7094 15.5204 15.7094 15.2301C15.7094 14.9273 15.56 14.5784 15.0764 14.5784H14.9152C14.7194 14.5784 14.6274 14.6951 14.6274 14.8462V15.6366C14.6274 15.7883 14.7194 15.9044 14.9152 15.9044ZM23.5812 21.0236C22.3955 21.0236 21.7513 21.9194 21.7513 23.0482V25.5611C21.7513 25.7702 21.6821 25.8639 21.5556 25.8639C21.4636 25.8639 21.3944 25.8058 21.3141 25.6429L19.7146 22.5013C19.1045 21.3026 18.4714 21.0236 17.7464 21.0236C16.5378 21.0236 15.8702 21.9426 15.8702 23.0944V30.2853C15.8702 31.4141 16.515 32.31 17.7001 32.31C18.8858 32.31 19.53 31.4141 19.53 30.2853V27.7724C19.53 27.5633 19.5991 27.4696 19.7257 27.4696C19.8177 27.4696 19.8869 27.5277 19.9672 27.6906L21.5667 30.8322C22.1768 32.0309 22.8327 32.31 23.5348 32.31C24.7435 32.31 25.411 31.391 25.411 30.2391V23.0482C25.411 21.9194 24.7669 21.0236 23.5812 21.0236ZM34.8665 38.4354C34.538 38.4354 34.2983 38.697 34.2983 39.0098C34.2983 39.3419 34.538 39.5885 34.8665 39.5879C35.195 39.5879 35.4347 39.3457 35.4347 39.0098C35.4347 38.697 35.195 38.4354 34.8665 38.4354ZM34.8665 38.5528C35.087 38.5528 35.3111 38.7207 35.3111 39.0098C35.3111 39.3107 35.087 39.4705 34.8665 39.4705C34.646 39.4705 34.4219 39.3107 34.4219 39.0098C34.4219 38.7207 34.646 38.5528 34.8665 38.5528ZM34.6695 38.7682V39.2564C34.6695 39.2876 34.6967 39.3145 34.7276 39.3151C34.7621 39.3151 34.7893 39.2876 34.7893 39.2564V39.0885H34.8084L34.9783 39.2914C34.9894 39.307 35.0049 39.3188 35.0283 39.3188C35.0629 39.3188 35.0863 39.2951 35.0863 39.2601C35.0863 39.2489 35.0789 39.2333 35.0672 39.2214L34.94 39.0766C35.0561 39.0572 35.1061 38.9792 35.1061 38.8893C35.1061 38.7838 35.0172 38.7058 34.89 38.7058H34.7276C34.6967 38.7058 34.6695 38.737 34.6695 38.7682ZM34.9826 38.8968C34.9826 38.9436 34.9443 38.9786 34.8745 38.9786L34.7899 38.9792V38.8188H34.8863C34.948 38.8188 34.9826 38.8462 34.9826 38.8968Z" fill="black"/>
</svg>
