<svg width="108" height="32" viewBox="0 0 108 32" fill="none" xmlns="http://www.w3.org/2000/svg">
<path fill-rule="evenodd" clip-rule="evenodd" d="M26.1486 14.1843C20.9969 11.1215 12.4992 10.8398 7.58117 12.3341C6.79138 12.5739 5.95626 12.1276 5.71696 11.337C5.47765 10.546 5.92302 9.71047 6.71332 9.47011C12.3589 7.75439 21.7437 8.08588 27.6745 11.6104C28.385 12.0324 28.618 12.9509 28.1968 13.661C27.7754 14.372 26.8573 14.6065 26.1486 14.1843ZM25.9799 18.7208C25.6186 19.308 24.8518 19.492 24.2661 19.1317C19.9711 16.4886 13.4216 15.723 8.34031 17.2671C7.68136 17.4664 6.98536 17.0945 6.78527 16.436C6.58666 15.7763 6.95837 15.0808 7.61613 14.8803C13.4209 13.1169 20.6369 13.971 25.57 17.0059C26.1557 17.367 26.3401 18.1351 25.9799 18.7208ZM24.0243 23.0776C23.7373 23.549 23.1239 23.6968 22.6548 23.4095C18.9016 21.1132 14.1777 20.5944 8.6145 21.8667C8.07833 21.9898 7.54411 21.6533 7.42177 21.1168C7.299 20.5801 7.63365 20.0453 8.17101 19.9229C14.259 18.5295 19.4813 19.1292 23.6939 21.7062C24.1636 21.9933 24.3115 22.6077 24.0243 23.0776ZM16.6947 0C7.86811 0 0.712402 7.16325 0.712402 15.9997C0.712402 24.8369 7.86811 32 16.6947 32C25.5217 32 32.677 24.8369 32.677 15.9997C32.677 7.16325 25.5217 0 16.6947 0ZM44.1946 14.7706C41.4351 14.1118 40.9437 13.6494 40.9437 12.6781C40.9437 11.7601 41.8071 11.1426 43.0907 11.1426C44.335 11.1426 45.5687 11.6116 46.8624 12.5772C46.9016 12.6065 46.9506 12.6181 46.9989 12.6105C47.0472 12.6032 47.0897 12.5769 47.1182 12.5367L48.4656 10.6353C48.5209 10.5572 48.5058 10.449 48.4312 10.3892C46.8916 9.15248 45.158 8.55121 43.1315 8.55121C40.152 8.55121 38.0708 10.3411 38.0708 12.9024C38.0708 15.649 39.8661 16.6214 42.9686 17.372C45.6091 17.981 46.0548 18.491 46.0548 19.4031C46.0548 20.4136 45.1536 21.0418 43.7033 21.0418C42.0928 21.0418 40.7788 20.4987 39.309 19.2244C39.2726 19.1931 39.2226 19.1786 39.1764 19.1812C39.1279 19.1853 39.0835 19.2078 39.0525 19.245L37.5418 21.045C37.4784 21.1198 37.4864 21.2313 37.5595 21.2959C39.2697 22.8242 41.3727 23.6316 43.6423 23.6316C46.8529 23.6316 48.9276 21.8752 48.9276 19.157C48.9276 16.8598 47.5566 15.5892 44.1946 14.7706ZM55.6194 21.1432C57.3285 21.1432 58.5221 19.7896 58.5221 17.8497C58.5221 15.941 57.301 14.5563 55.6194 14.5563C53.9299 14.5563 52.6554 15.9716 52.6554 17.8497C52.6554 19.7281 53.9299 21.1432 55.6194 21.1432ZM52.717 13.7193C53.6583 12.595 54.7997 12.0462 56.1914 12.0462C58.7772 12.0462 61.3949 14.0395 61.3949 17.8497C61.3949 21.659 58.7772 23.6518 56.1914 23.6518C54.8001 23.6518 53.6585 23.1352 52.717 22.0775V26.5162C52.717 26.6162 52.6361 26.6975 52.5363 26.6975H50.0656C49.9657 26.6975 49.885 26.6162 49.885 26.5162V12.4538C49.885 12.3538 49.9657 12.2724 50.0656 12.2724H52.5363C52.6361 12.2724 52.717 12.3538 52.717 12.4538V13.7193ZM68.1053 21.1635C66.334 21.1635 64.9986 19.7387 64.9986 17.8497C64.9986 15.9527 66.2878 14.5761 68.0644 14.5761C69.8472 14.5761 71.1915 16.0008 71.1915 17.8911C71.1915 19.7878 69.8935 21.1635 68.1053 21.1635ZM68.1053 12.0462C64.7752 12.0462 62.1663 14.6134 62.1663 17.8911C62.1663 21.1333 64.7572 23.6735 68.0644 23.6735C71.4064 23.6735 74.0233 21.115 74.0233 17.8497C74.0233 14.5954 71.4243 12.0462 68.1053 12.0462ZM78.415 12.2724H81.1341C81.2339 12.2724 81.3142 12.3538 81.3142 12.4537V14.5796C81.3142 14.6794 81.2339 14.7608 81.1341 14.7608H78.415V19.8741C78.415 20.6817 78.7689 21.0419 79.5615 21.0419C80.0758 21.0419 80.5359 20.9312 81.0119 20.6915C81.0671 20.6642 81.1341 20.6659 81.1879 20.6997C81.2411 20.7326 81.2738 20.7914 81.2738 20.8539V22.8783C81.2738 22.943 81.2386 23.0037 81.1824 23.0352C80.4894 23.4286 79.754 23.6118 78.8677 23.6118C76.688 23.6118 75.5828 22.4848 75.5828 20.2618V14.7608H74.3948C74.2952 14.7608 74.2148 14.6794 74.2148 14.5796V12.4537C74.2148 12.3538 74.2952 12.2724 74.3948 12.2724H75.5828V9.4894C75.5828 9.38947 75.6642 9.30827 75.7642 9.30827H78.2347C78.3345 9.30827 78.415 9.38947 78.415 9.4894V12.2724ZM90.6071 12.2833V11.9414C90.6071 10.9359 90.9922 10.4875 91.856 10.4875C92.3711 10.4875 92.7848 10.5899 93.2482 10.7446C93.3053 10.7626 93.3648 10.7536 93.4112 10.7194C93.4589 10.6852 93.4858 10.6304 93.4858 10.5723V8.48783C93.4858 8.40816 93.4347 8.33766 93.3581 8.31435C92.8686 8.16857 92.2422 8.01878 91.3044 8.01878C89.0221 8.01878 87.8159 9.30538 87.8159 11.7382V12.2617H86.6288C86.5292 12.2617 86.4475 12.3429 86.4475 12.4428V14.5796C86.4475 14.6794 86.5292 14.7608 86.6288 14.7608H87.8159V23.2457C87.8159 23.3457 87.8964 23.4269 87.9961 23.4269H90.4668C90.5666 23.4269 90.6479 23.3457 90.6479 23.2457V14.7608H92.9549L96.4888 23.2435C96.0877 24.1347 95.6932 24.3121 95.1546 24.3121C94.7193 24.3121 94.2609 24.1819 93.7921 23.9252C93.748 23.9008 93.6959 23.8969 93.6482 23.9116C93.6011 23.9284 93.5614 23.9634 93.5414 24.0094L92.7039 25.8488C92.664 25.9356 92.698 26.0377 92.7816 26.0828C93.6559 26.5568 94.4452 26.7592 95.4204 26.7592C97.245 26.7592 98.2534 25.9082 99.1426 23.6193L103.429 12.5301C103.451 12.4743 103.444 12.4115 103.41 12.3618C103.376 12.3129 103.321 12.2833 103.261 12.2833H100.689C100.612 12.2833 100.543 12.3322 100.518 12.4046L97.883 19.9396L94.9968 12.3996C94.9704 12.3295 94.9031 12.2833 94.8281 12.2833H90.6071ZM82.6448 12.2725H85.1157C85.2153 12.2725 85.2966 12.3539 85.2966 12.4538V23.2459C85.2966 23.3458 85.2153 23.427 85.1157 23.427H82.6448C82.545 23.427 82.4639 23.3458 82.4639 23.2459V12.4538C82.4639 12.3539 82.545 12.2725 82.6448 12.2725ZM83.8926 7.3585C82.9139 7.3585 82.1194 8.15197 82.1194 9.13173C82.1194 10.1123 82.9139 10.9065 83.8926 10.9065C84.871 10.9065 85.6646 10.1123 85.6646 9.13173C85.6646 8.15197 84.871 7.3585 83.8926 7.3585ZM105.188 13.346H105.641C105.867 13.346 106.002 13.4468 106.002 13.6348C106.002 13.8133 105.867 13.9239 105.641 13.9239H105.188V13.346ZM106.426 14.8599L105.934 14.1705C106.185 14.098 106.358 13.9149 106.358 13.6154C106.358 13.2498 106.079 13.0325 105.655 13.0325H104.841V14.8599H105.188V14.2275H105.569L106.011 14.8599H106.426ZM103.984 14.0013C103.984 13.1332 104.658 12.4246 105.549 12.4246C106.435 12.4246 107.105 13.1238 107.105 13.9914C107.105 14.8599 106.43 15.5682 105.54 15.5682C104.653 15.5682 103.984 14.8689 103.984 14.0013ZM103.801 14.0013C103.801 14.956 104.562 15.7423 105.54 15.7423C106.517 15.7423 107.288 14.9463 107.288 13.9914C107.288 13.0375 106.526 12.2513 105.549 12.2513C104.572 12.2513 103.801 13.0465 103.801 14.0013Z" fill="black"/>
</svg>
