<svg width="89" height="38" viewBox="0 0 89 38" fill="none" xmlns="http://www.w3.org/2000/svg">
<g id="CKE-Logo">
<path id="Subtract" fill-rule="evenodd" clip-rule="evenodd" d="M23.651 1.69957C23.6482 1.28637 23.6454 0.880667 23.5868 0.452557C23.4238 0.0122531 22.8467 -0.151288 22.5205 0.163214C22.3103 0.365173 22.143 0.616162 21.98 0.860569C21.9095 0.966321 21.8398 1.07084 21.7678 1.16962C20.6324 2.79879 19.4939 4.4248 18.3554 6.05082C17.2169 7.67676 16.0785 9.30271 14.9431 10.9318C12.9171 10.3091 10.8847 9.68951 8.85239 9.06994C6.82004 8.45037 4.7877 7.8308 2.76163 7.20808C2.38527 7.09486 2.02145 7.0697 1.78309 7.43452C1.59682 7.71471 1.68065 7.9624 1.77389 8.23791C1.78112 8.25928 1.78841 8.28082 1.79564 8.30255C2.04654 8.60447 2.29745 8.9064 2.53581 9.2209C3.7088 10.7871 4.88493 12.3502 6.06106 13.9133C7.23718 15.4764 8.41329 17.0394 9.58628 18.6057C9.50474 18.7189 9.4232 18.8352 9.34166 18.9516C9.26011 19.068 9.17856 19.1843 9.09701 19.2976C8.59772 20.0137 8.0991 20.7291 7.60085 21.4439C5.94577 23.8186 4.29468 26.1876 2.63617 28.5565C2.58437 28.6345 2.52756 28.7132 2.46983 28.7932C2.30386 29.0233 2.13032 29.2639 2.04654 29.5252C1.99636 29.9152 2.22218 30.2171 2.58599 30.3303C3.06508 30.255 3.52306 30.0879 3.98627 29.919C4.14168 29.8623 4.29767 29.8054 4.45524 29.7517L4.45567 29.7515C8.04349 28.5061 11.6313 27.2607 15.2191 26.0279C16.4799 27.72 17.7502 29.4089 19.0204 31.0978C20.2906 32.7866 21.5608 34.4755 22.8216 36.1675C22.8395 36.189 22.8576 36.2113 22.8761 36.234C22.9871 36.3705 23.1101 36.5215 23.2607 36.6078C23.6245 36.7714 24.0887 36.5701 24.1765 36.1801C24.2347 35.83 24.2179 35.4648 24.2015 35.1078C24.1966 35.0031 24.1919 34.899 24.189 34.7963C24.1574 32.804 24.1226 30.815 24.0878 28.8275C24.0536 26.8743 24.0194 24.9226 23.9883 22.971C25.768 22.371 27.5383 21.7568 29.3079 21.143C30.4322 20.753 31.5563 20.363 32.6822 19.9769C32.6822 19.6748 32.6798 19.3726 32.6775 19.0707C32.6704 18.1657 32.6634 17.2625 32.7198 16.3664C30.1982 15.599 27.6641 14.8191 25.1299 14.0391C24.9512 13.9848 24.7724 13.9281 24.5927 13.8711C24.3561 13.7961 24.1178 13.7206 23.8754 13.6491C23.8227 11.3847 23.7836 9.1203 23.7444 6.85591C23.7183 5.34627 23.6922 3.83663 23.6621 2.32699C23.6538 2.11352 23.6524 1.90561 23.651 1.69957ZM16.2616 12.7812C16.4122 12.7938 16.6254 13.1083 16.4749 13.2215C16.3967 13.387 16.1922 13.3776 15.9988 13.3687C15.9129 13.3647 15.8292 13.3609 15.7598 13.3725C15.2868 13.3542 14.8798 13.4947 14.4575 13.6404C14.2973 13.6957 14.1349 13.7518 13.9658 13.8002C14.3673 12.9699 15.3834 12.5044 16.2616 12.7812ZM21.6427 14.4417C22.5083 14.6304 23.2234 15.6871 22.9976 16.5551C22.8991 16.4308 22.8101 16.3053 22.7224 16.1816C22.5084 15.8799 22.3017 15.5883 21.9814 15.3474C21.9007 15.2835 21.8113 15.224 21.7211 15.1638C21.545 15.0464 21.3657 14.9268 21.2412 14.7688C21.2479 14.7495 21.2542 14.7311 21.2602 14.7135C21.3326 14.5007 21.3646 14.4068 21.6427 14.4417ZM16.035 16.7566C16.3862 16.8195 16.6873 16.3414 16.5368 16.0521C16.1604 15.0834 14.6801 14.7438 13.9148 15.4231C13.7626 15.5471 13.7258 15.7291 13.6895 15.9086L13.6895 15.9086C13.678 15.9657 13.6665 16.0226 13.6514 16.0772C13.8119 16.0951 13.9725 16.1051 14.1325 16.115M16.035 16.7566C15.8902 16.6915 15.7594 16.6085 15.629 16.5259L16.035 16.7566ZM15.629 16.5259C15.4317 16.4007 15.2355 16.2762 14.9937 16.2156L15.629 16.5259ZM14.9937 16.2156C14.7108 16.1508 14.4226 16.1329 14.1326 16.115L14.9937 16.2156ZM22.1968 18.0524C22.247 18.304 22.1341 18.455 21.9333 18.6059C21.7615 18.5281 21.6067 18.4306 21.4518 18.333C21.2563 18.2097 21.0604 18.0863 20.8294 18.0021C20.6242 17.9291 20.405 17.9226 20.1866 17.9161C19.9911 17.9104 19.7962 17.9046 19.6125 17.8511C19.3114 17.6121 19.3866 17.1466 19.7128 16.9579C20.5785 16.4296 22.0086 17.0334 22.1968 18.0524ZM16.5116 19.1476C16.3097 19.0254 16.1069 18.9027 15.8873 18.8193C15.8371 18.9074 15.787 19.0206 15.7744 19.159L15.8428 19.2452C16.0776 19.5419 16.3465 19.8815 16.6777 20.0648C17.2673 20.4044 18.0702 20.266 18.6222 19.9264L18.6849 19.6874C18.4309 19.6136 18.1627 19.597 17.8954 19.5805C17.661 19.566 17.4273 19.5516 17.2046 19.4987C16.96 19.4191 16.7364 19.2837 16.5116 19.1476L16.5116 19.1476ZM13.2759 18.9453C13.2681 19.0274 13.247 19.1131 13.2258 19.1994C13.1786 19.391 13.1306 19.5857 13.2258 19.7504C13.5268 20.392 13.9785 20.9959 14.5054 21.4739C15.2205 22.1155 16.1112 22.4803 17.0646 22.6313C18.1686 22.8074 19.3479 22.5055 20.3013 21.9645C20.514 21.8579 20.5765 21.6759 20.6434 21.4807C20.6713 21.3996 20.6999 21.3161 20.7404 21.2349C21.0415 21.5997 21.2924 21.9645 21.3928 22.4426C21.3175 22.4237 21.2391 22.4048 21.1607 22.386C21.0823 22.3671 21.0039 22.3482 20.9286 22.3294C19.8999 23.1597 18.7457 23.8138 17.4159 23.9522C16.2617 24.078 15.1076 23.6503 14.2796 22.8326C13.439 22.04 12.9623 21.0462 12.5859 19.9643C12.5336 19.7894 12.4147 19.724 12.2796 19.6496C12.2203 19.617 12.1579 19.5826 12.0967 19.5366C12.4479 19.2472 12.8369 19.0711 13.2759 18.9453Z" fill="black"/>
<path id="Fill-4" opacity="0.7" fill-rule="evenodd" clip-rule="evenodd" d="M23.5869 0.452637C24.1013 1.82387 24.9167 3.27058 24.9544 4.7173C25.0296 7.82459 25.0547 10.9319 25.13 14.0266C24.716 13.9008 24.2895 13.7624 23.8755 13.6366C23.7876 9.86257 23.7375 6.08853 23.6622 2.31449C23.6371 1.68549 23.6747 1.08164 23.5869 0.452637Z" fill="black"/>
<path id="Fill-6" opacity="0.7" fill-rule="evenodd" clip-rule="evenodd" d="M1.78418 8.27734C2.03509 8.57927 2.28599 8.88119 2.52435 9.19569C4.87033 12.3281 7.22884 15.448 9.57482 18.5805C9.41173 18.8069 9.24864 19.0459 9.08555 19.2724C7.09085 16.6431 5.10869 13.9887 3.12653 11.3595C2.42399 10.4034 2.16054 9.37181 1.78418 8.27734Z" fill="black"/>
<path id="Fill-8" fill-rule="evenodd" clip-rule="evenodd" d="M44.5159 10.24C46.4604 10.9571 48.2418 12.3912 49.0071 14.3663C47.7149 15.0959 46.4102 15.8256 45.118 16.5426C44.6037 15.7878 43.9262 15.184 43.0857 14.8317C42.1824 14.4418 41.1286 14.4166 40.2003 14.7437C39.6483 14.9575 39.1841 15.3224 38.8956 15.8381C38.6196 16.3288 38.5694 16.8571 38.5568 17.4232V21.0715C38.5568 21.6753 38.6697 22.2666 39.021 22.7698C39.4726 23.424 40.2003 23.7385 40.9655 23.8391C42.5964 24.0781 44.2273 23.2353 45.1055 21.8514C46.3475 22.5811 47.602 23.2982 48.844 24.0404C48.1916 25.7135 46.8869 27.0093 45.2937 27.7893C43.3617 28.7705 41.1788 28.934 39.0712 28.5692C37.3399 28.2547 35.6714 27.5125 34.4169 26.2671C33.0996 25.0091 32.3218 23.2101 32.2842 21.386C32.2842 20.9079 32.2967 20.4299 32.2967 19.9644C32.3093 18.7567 32.2716 17.549 32.3344 16.3539C32.5225 14.5172 33.5136 12.7686 34.9563 11.6238C36.2861 10.5545 37.8919 9.96323 39.573 9.73679C41.2415 9.5355 42.9226 9.63615 44.5159 10.24Z" fill="black"/>
<path id="Fill-10" fill-rule="evenodd" clip-rule="evenodd" d="M67.9869 10.0638C66.356 12.5044 64.7251 14.9449 63.0942 17.3855C64.8129 21.0211 66.5442 24.6568 68.2629 28.2924H61.7393C60.7859 26.1916 59.8324 24.0907 58.879 21.9898C58.2392 22.8578 57.5994 23.7384 56.947 24.6065V28.2924H50.7998V10.0513H56.947V17.8006C58.465 15.2217 59.983 12.6302 61.526 10.0638C63.6713 10.0513 65.8291 10.0638 67.9869 10.0638Z" fill="black"/>
<path id="Fill-12" fill-rule="evenodd" clip-rule="evenodd" d="M69.8545 10.064H84.5074V14.8192H76.0017V17.5617H81.5844V20.4803H76.0017V23.2228H84.5074V28.3177H69.8545C69.8545 22.2289 69.867 16.1402 69.8545 10.064Z" fill="black"/>
<path id="Fill-26" opacity="0.7" fill-rule="evenodd" clip-rule="evenodd" d="M32.682 19.9644C32.682 20.4424 32.682 20.9079 32.6694 21.3859C30.2106 22.2162 27.7517 23.0716 25.2928 23.9271C25.343 27.5879 25.4183 31.2361 25.4684 34.897C25.4684 35.5511 25.5563 36.2556 25.4183 36.9098C25.1423 37.8533 24.0006 38.281 23.1601 37.803C22.6959 37.5136 22.3823 36.9601 22.0436 36.5324C19.7603 33.488 17.4771 30.4436 15.1813 27.4118C12.1077 28.4811 9.02153 29.5378 5.94793 30.6071C5.38339 30.7958 4.8314 31.06 4.21668 30.8965C3.65214 30.7329 3.11269 30.5065 2.57324 30.2926C3.21305 30.1794 3.81523 29.9278 4.44249 29.7139C8.03045 28.4685 11.6184 27.2357 15.2064 25.9902C17.728 29.3743 20.2872 32.7458 22.8088 36.1298C22.9343 36.2808 23.0723 36.4695 23.2479 36.5701C23.5992 36.7462 24.0759 36.545 24.1637 36.1424C24.239 35.7021 24.1888 35.2115 24.1763 34.7586C24.1135 30.821 24.0383 26.8834 23.9755 22.9333C26.8861 21.9772 29.784 20.9708 32.682 19.9644Z" fill="black"/>
<path id="Fill-28" fill-rule="evenodd" clip-rule="evenodd" d="M37.8154 31.4121H41.7045V32.6701H39.4463V33.362H40.9267V34.142H39.4463V34.7962H41.7045V36.1548H37.8154V31.4121Z" fill="black"/>
<path id="Fill-30" fill-rule="evenodd" clip-rule="evenodd" d="M46.4849 32.2047C46.1964 32.4689 45.8953 32.7331 45.5942 32.9973C45.13 32.6702 44.5906 32.3179 44.0009 32.5066C43.8002 32.5695 43.75 32.8211 43.9508 32.9469C44.5529 33.2992 45.544 33.3369 46.1336 33.903C46.5602 34.3182 46.5351 35.0101 46.1964 35.4756C45.7949 36.0039 45.1426 36.2429 44.5028 36.2807C43.5619 36.3436 42.6962 35.9913 41.9561 35.4127C42.207 35.0981 42.4704 34.7836 42.7339 34.4817C43.2608 34.8465 43.8378 35.1988 44.5028 35.1485C44.7537 35.0982 44.8289 35.0227 44.9167 34.7836C44.3271 34.2175 43.2859 34.3433 42.6711 33.7395C42.0439 33.186 42.2321 32.2047 42.8719 31.7518C43.9759 30.9845 45.544 31.2738 46.4849 32.2047Z" fill="black"/>
<path id="Fill-32" fill-rule="evenodd" clip-rule="evenodd" d="M46.7225 31.4121H51.0506V32.733H49.6957V36.1548H48.0649V32.733H46.71C46.7225 32.2927 46.7225 31.865 46.7225 31.4121Z" fill="black"/>
<path id="Fill-34" fill-rule="evenodd" clip-rule="evenodd" d="M55.9438 31.4375C56.4832 31.3997 57.0227 31.4375 57.5621 31.4249V34.0415C57.5747 34.268 57.5496 34.5699 57.675 34.7712C57.951 35.1486 58.7665 35.0857 58.8166 34.5447C58.8543 33.5132 58.8166 32.469 58.8292 31.4249H60.3346V34.4189C60.3346 34.8718 60.2343 35.3121 59.9081 35.6518C59.469 36.1424 58.8041 36.2808 58.1768 36.2934C57.4994 36.2808 56.8094 36.1424 56.3452 35.614C56.0441 35.287 55.9312 34.8592 55.9438 34.4189C55.9438 33.4125 55.9187 32.4187 55.9438 31.4375Z" fill="black"/>
<path id="Fill-36" fill-rule="evenodd" clip-rule="evenodd" d="M70.7733 31.4121H72.1533C72.6551 32.1292 73.1694 32.8337 73.6838 33.5381V31.4121H75.1892V36.1674H73.8218C73.2949 35.4503 72.768 34.7458 72.2411 34.0414V36.1674H70.7607C70.7733 34.5823 70.7733 32.9972 70.7733 31.4121Z" fill="black"/>
<path id="Fill-38" fill-rule="evenodd" clip-rule="evenodd" d="M75.7264 31.4121H80.0546V32.733H78.6997V36.1548H77.0688V32.733H75.7139C75.7264 32.2927 75.7264 31.865 75.7264 31.4121Z" fill="black"/>
<path id="Fill-40" fill-rule="evenodd" clip-rule="evenodd" d="M84.6462 32.2049C84.3577 32.469 84.0566 32.7332 83.768 32.9974C83.1784 32.5948 82.6139 32.23 81.8988 32.6326C81.9991 32.7584 82.0995 32.9597 82.2626 33.0226C82.9024 33.2993 83.6551 33.3622 84.2197 33.8277C84.6964 34.2051 84.734 34.9348 84.4078 35.4254C84.044 35.9537 83.3917 36.2305 82.7644 36.2808C81.7859 36.3689 80.8826 36.0292 80.1299 35.4254C80.3808 35.1109 80.6442 34.7964 80.9077 34.4819C81.4346 34.8593 81.974 35.1738 82.639 35.1612C82.8522 35.136 83.0404 35.0354 83.0529 34.7964C82.8899 34.5573 82.6389 34.507 82.3755 34.419C81.811 34.2554 81.0582 34.0919 80.6819 33.6013C80.2177 32.9848 80.4561 32.1168 81.0833 31.7142C82.1999 30.9972 83.7178 31.2865 84.6462 32.2049Z" fill="black"/>
<path id="Fill-42" fill-rule="evenodd" clip-rule="evenodd" d="M87.2571 33.4252C87.1066 33.2365 86.9561 33.0478 86.8181 32.8591C87.0313 32.6075 87.207 32.4314 87.0815 32.0791C86.9435 31.7521 86.4292 31.8653 86.1532 31.815L86.103 31.7898C86.0277 31.7395 85.965 31.7017 85.8897 31.6514C86.1657 31.6137 86.4919 31.5256 86.7679 31.6011C87.2446 31.7521 87.5959 32.2553 87.5206 32.7585C87.4955 32.9975 87.345 33.2113 87.2571 33.4252ZM86.241 32.532C86.2535 32.3936 86.2786 32.2427 86.3037 32.1043C86.4542 32.1169 86.6048 32.1546 86.7553 32.1924C86.9059 32.5572 86.4542 32.4314 86.241 32.532ZM85.9775 33.5636C85.4757 33.2742 85.3001 32.7207 85.5133 32.1798C85.6263 32.0288 85.7266 31.8779 85.8395 31.7269C85.9775 32.2804 85.9148 32.8214 85.9273 33.4001H86.2661C86.2786 33.161 86.2912 32.9346 86.3162 32.6956C86.4919 32.9094 86.655 33.1359 86.8055 33.3749C86.9561 33.4001 87.0941 33.4378 87.2446 33.463C86.8055 33.6517 86.4166 33.8026 85.9775 33.5636ZM87.4704 31.6892C87.1317 31.3118 86.5546 31.1608 86.0653 31.3243C85.2624 31.5634 84.8735 32.5194 85.2624 33.2742C85.6513 34.0542 86.7428 34.2555 87.3826 33.6517C87.9597 33.1484 87.9973 32.2427 87.4704 31.6892Z" fill="black"/>
<path id="Fill-45" fill-rule="evenodd" clip-rule="evenodd" d="M35.4445 33.3872C35.3065 33.664 34.8046 33.5633 34.5412 33.6136V32.6072C34.8046 32.6324 35.1559 32.5821 35.3817 32.7204C35.5197 32.9091 35.5197 33.1607 35.4445 33.3872ZM37.1004 34.6452C37.0628 34.2301 36.7868 34.0665 36.4857 33.8652C36.6614 33.7143 36.8997 33.5507 37.0126 33.3369C37.2133 32.8337 37.1381 32.1543 36.699 31.7895C36.3226 31.4624 35.8208 31.4247 35.3441 31.4121H32.9229V36.1674H34.5537V34.3936C34.8423 34.4062 35.1434 34.3936 35.4194 34.4439C35.6703 34.8968 35.3441 35.6265 35.7455 36.1297C36.2725 36.2051 36.8119 36.1548 37.3388 36.1674C37.0879 35.6642 37.1255 35.1861 37.1004 34.6452Z" fill="black"/>
<path id="Fill-47" fill-rule="evenodd" clip-rule="evenodd" d="M63.4203 33.5258C63.1694 33.5887 62.8934 33.5887 62.6425 33.6013V32.5949C62.8934 32.6074 63.1568 32.5949 63.3952 32.6578C63.6712 32.8339 63.6461 33.3245 63.4203 33.5258ZM65.2017 34.658C65.1766 34.2428 64.8881 34.0793 64.587 33.8654C64.8504 33.6516 65.1139 33.4755 65.1766 33.1232C65.2142 32.7207 65.2268 32.3307 64.9759 31.991C64.6246 31.5507 64.0977 31.4501 63.5708 31.4249C62.7177 31.4123 61.8521 31.4249 60.999 31.4249V36.1802H62.655V34.4064C62.931 34.419 63.2446 34.3938 63.5081 34.4693C63.759 34.9096 63.4955 35.5386 63.7339 36.0041C63.8217 36.2305 63.9848 36.155 64.1855 36.1802C64.5995 36.1928 65.0135 36.1802 65.4275 36.1802C65.1892 35.677 65.2268 35.1864 65.2017 34.658Z" fill="black"/>
<path id="Fill-49" fill-rule="evenodd" clip-rule="evenodd" d="M67.4976 34.4315C67.6231 34.0038 67.7485 33.5761 67.874 33.1483C67.9744 33.5761 68.0873 34.0038 68.1876 34.4315C67.9618 34.4441 67.7234 34.4315 67.4976 34.4315ZM68.7898 31.4249C68.2253 31.4375 67.6607 31.3997 67.1087 31.4375C66.9833 31.7016 66.8955 31.991 66.8076 32.2677C66.3811 33.5761 65.942 34.8718 65.5029 36.1676H66.9707C67.046 35.9286 67.1087 35.6895 67.184 35.4379H68.4511C68.5138 35.677 68.5765 35.916 68.6393 36.1676H70.3705C69.8562 34.5825 69.3167 33.01 68.7898 31.4249Z" fill="black"/>
<path id="Fill-51" fill-rule="evenodd" clip-rule="evenodd" d="M52.8559 34.4314C52.9813 34.0163 53.1068 33.5885 53.2197 33.1608C53.3451 33.576 53.4455 34.0037 53.5459 34.4314H52.8559ZM54.148 31.4122C53.5835 31.4248 53.019 31.387 52.467 31.4248C51.8899 32.9847 51.4132 34.5949 50.8486 36.1549H52.329C52.4042 35.9159 52.467 35.6768 52.5422 35.4378H53.8093C53.8721 35.6768 53.9348 35.9159 54.01 36.1675H55.7413C55.2019 34.5824 54.6749 32.9973 54.148 31.4122Z" fill="black"/>
</g>
</svg>
