<svg width="44" height="44" viewBox="0 0 44 44" fill="none" xmlns="http://www.w3.org/2000/svg">
<path fill-rule="evenodd" clip-rule="evenodd" d="M13.9347 0.0435926C13.4237 0.0731677 12.9084 0.102991 12.3789 0.0796199C11.9818 0.0430052 11.7982 0.252219 11.5831 0.497283L11.5831 0.497303C11.5357 0.551258 11.4868 0.606951 11.4338 0.66214C11.0105 1.17203 10.5637 1.66042 10.117 2.14879L10.117 2.14879C9.8275 2.46522 9.53804 2.78165 9.25496 3.10391C9.16708 3.20693 9.07642 3.30233 8.98755 3.39586L8.98754 3.39587L8.98752 3.39589L8.98751 3.3959C8.71319 3.68458 8.45581 3.95542 8.34939 4.37721C7.92073 6.05056 7.46563 7.71603 7.01049 9.38167L7.01047 9.38173L7.01046 9.38178L7.01045 9.38183L7.01043 9.38188L7.01042 9.38193L7.0104 9.38198L7.01039 9.38204L7.01037 9.38209L7.01036 9.38214L7.01034 9.38219C6.67005 10.6275 6.32973 11.873 6.00041 13.1219C5.85094 13.9109 5.23591 14.5461 4.64791 15.1534L4.6479 15.1535L4.64788 15.1535C4.41118 15.398 4.17886 15.6379 3.98307 15.8816C3.7963 16.1297 3.57779 16.3614 3.35898 16.5934C3.02015 16.9527 2.68061 17.3128 2.45718 17.7357C2.42759 18.2396 2.50217 18.749 2.57665 19.2577C2.62764 19.6059 2.67857 19.9538 2.69603 20.2994C2.76999 20.8123 2.83711 21.3253 2.90419 21.8381C3.02411 22.7549 3.14392 23.6709 3.3026 24.5833C3.42314 25.1372 3.23398 25.7249 3.05052 26.2948C2.97505 26.5292 2.90055 26.7606 2.84896 26.9855C2.76729 27.3283 2.66915 27.6733 2.57058 28.0198C2.3539 28.7816 2.13508 29.5508 2.0843 30.3208L2.20951 30.32C3.00289 30.315 3.79627 30.3099 4.58965 30.3638C4.4705 30.5221 4.34723 30.6695 4.22641 30.8139C3.85408 31.259 3.50496 31.6764 3.37134 32.3004C2.90883 34.095 2.42004 35.887 1.93122 37.6792C1.35943 39.7755 0.787582 41.8721 0.25769 43.9731C1.32307 43.9937 2.39016 43.9989 3.45382 43.9834C3.74919 43.9929 3.94718 43.8509 4.1616 43.6972C4.22036 43.6551 4.28035 43.6121 4.34392 43.571C4.71073 43.2981 5.08262 43.0315 5.45451 42.7649C6.04952 42.3383 6.64453 41.9118 7.21872 41.4592C7.62358 41.1711 7.7423 40.7733 7.87015 40.3449C7.9116 40.206 7.95401 40.0639 8.00744 39.9212C8.47317 39.871 8.93444 39.7978 9.3959 39.7246L9.39596 39.7246L9.39601 39.7246L9.39607 39.7246L9.39613 39.7246L9.39618 39.7246L9.39624 39.7246L9.3963 39.7245L9.39636 39.7245L9.39641 39.7245L9.39647 39.7245C9.69248 39.6775 9.98857 39.6306 10.286 39.5896C10.2499 39.8634 10.1732 40.1527 10.0952 40.4467C9.94262 41.022 9.7852 41.6155 9.91825 42.1465C10.3977 43.4525 11.75 43.9748 13.0525 43.9869C13.342 43.9819 13.6426 43.9859 13.9485 43.99C15.0315 44.0044 16.1807 44.0197 17.1387 43.6432C17.5949 43.4821 17.889 43.1579 18.1977 42.8176C18.2612 42.7477 18.3252 42.677 18.3914 42.607C19.0306 43.5745 20.0359 43.8408 21.127 43.968C22.6546 44.0419 24.0877 44.0401 25.5002 43.3734C26.067 43.09 26.6237 42.7851 27.1805 42.4801L27.1805 42.4801L27.1806 42.4801L27.1806 42.48L27.1806 42.48L27.1807 42.48L27.1807 42.48L27.1808 42.48L27.1808 42.4799L27.1808 42.4799L27.1809 42.4799C27.9406 42.0638 28.7005 41.6475 29.4868 41.2856C29.449 41.4341 29.4109 41.5825 29.3728 41.7309L29.3728 41.7311C29.1809 42.4789 28.9892 43.2261 28.8287 43.9817C29.1892 43.9783 29.552 43.9838 29.9154 43.9893H29.9155C30.6431 44.0004 31.3727 44.0115 32.0901 43.9508C32.7827 43.5542 33.4415 43.0822 34.099 42.6111L34.099 42.6111L34.099 42.6111L34.0991 42.6111L34.0991 42.6111L34.0991 42.611L34.0992 42.611L34.0992 42.611L34.0992 42.611L34.0993 42.6109L34.0993 42.6109C34.51 42.3166 34.9202 42.0227 35.3378 41.7479C35.4346 41.6716 35.5353 41.6052 35.6336 41.5405L35.6337 41.5405L35.6337 41.5404L35.6337 41.5404L35.6338 41.5404L35.6338 41.5404L35.6339 41.5403L35.6339 41.5403L35.6339 41.5403L35.634 41.5403L35.634 41.5402C35.9298 41.3454 36.2042 41.1646 36.288 40.7701C36.5756 39.7629 36.8458 38.7499 37.1161 37.7368C37.3983 36.6793 37.6804 35.6217 37.9823 34.5703C38.0329 34.3895 38.0777 34.202 38.123 34.0126L38.123 34.0125C38.239 33.5268 38.358 33.0288 38.5855 32.6011C38.934 32.2206 39.3794 31.9322 39.8244 31.644C40.2176 31.3894 40.6105 31.135 40.9361 30.8174C41.053 30.5975 41.1217 30.3397 41.1819 30.0975C41.249 29.8077 41.3295 29.5236 41.4098 29.2401L41.4098 29.2401C41.5558 28.725 41.7012 28.212 41.7644 27.6711C41.1011 27.6316 40.4447 27.6248 39.7831 27.6522C39.8141 27.1316 39.7436 26.6401 39.6147 26.1384C39.5006 25.6909 39.4236 25.2386 39.3468 24.7868L39.3468 24.7867L39.3468 24.7867L39.3468 24.7866L39.3467 24.7866L39.3467 24.7865L39.3467 24.7864L39.3467 24.7864L39.3467 24.7863L39.3467 24.7863C39.2512 24.2249 39.1558 23.6642 38.9893 23.1141C38.7659 23.3804 38.6834 23.6519 38.7418 23.9286C38.8896 24.9063 39.058 25.8944 39.3192 26.8481C38.6976 26.8461 38.0761 26.8469 37.4548 26.8476C36.958 26.8482 36.4613 26.8488 35.965 26.8481C35.8309 25.8566 35.6471 24.884 35.4185 23.9114C35.3361 23.5574 35.2753 23.1975 35.2145 22.8376C35.1256 22.3117 35.0368 21.7859 34.8807 21.2789C34.4203 22.8436 34.0007 24.4255 33.5821 26.0038L33.5796 26.0132C33.5053 26.2934 33.431 26.5734 33.3565 26.8532C32.6494 26.8472 31.9414 26.8471 31.2337 26.847H31.2337H31.2337H31.2337H31.2336H31.2336H31.2336H31.2336H31.2336H31.2335H31.2335C30.9301 26.8469 30.6268 26.8469 30.3236 26.8463C31.0677 24.2452 31.7706 21.6312 32.4733 19.0174L32.4735 19.0167L32.4737 19.0159L32.4739 19.0151L32.4741 19.0144L32.4743 19.0136L32.4746 19.0128L32.4748 19.0121L32.475 19.0113L32.4751 19.0107L32.4753 19.0102C32.8916 17.4616 33.3079 15.9132 33.7328 14.3677C34.7329 14.3814 35.7347 14.3866 36.7348 14.366C36.5839 14.9422 36.4276 15.5172 36.2713 16.0923C36.0235 17.0039 35.7757 17.9159 35.5491 18.8337C35.9315 18.3856 36.3161 17.9389 36.7008 17.4921L36.7009 17.492L36.7009 17.492L36.701 17.4919L36.701 17.4919L36.701 17.4919L36.7011 17.4918L36.7011 17.4918L36.7011 17.4917L36.7012 17.4917L36.7012 17.4917C37.5231 16.5372 38.3451 15.5825 39.1456 14.6134C39.3309 14.3682 39.5419 14.3725 39.7869 14.3775C39.8646 14.3791 39.9458 14.3808 40.0306 14.3746C40.3258 14.3769 40.6212 14.3761 40.9167 14.3752H40.9167H40.9168H40.9168H40.9169H40.917H40.917H40.9171H40.9171H40.9172H40.9172C41.4901 14.3736 42.0632 14.3719 42.6356 14.3935C41.7955 15.3506 40.9706 16.3225 40.1459 17.2943L40.1458 17.2943L40.1457 17.2945L40.1451 17.2952L40.1449 17.2954L40.1447 17.2956L40.1446 17.2958L40.1444 17.296L40.1442 17.2962L40.144 17.2964L40.1439 17.2966L40.1437 17.2969L40.1435 17.2971C39.4795 18.0794 38.8156 18.8617 38.1438 19.6361C37.9202 19.8463 37.9692 20.0885 38.0209 20.3442L38.021 20.3443C38.0348 20.4127 38.0489 20.482 38.0579 20.552C38.1375 20.9185 38.2038 21.2888 38.2701 21.659L38.2701 21.6591L38.2701 21.6592L38.2702 21.6593L38.2702 21.6594L38.2702 21.6595L38.2702 21.6597C38.383 22.289 38.4957 22.9181 38.6731 23.5282L38.9463 23.1021C38.9425 22.6307 38.8433 22.1512 38.7439 21.6711L38.7439 21.671C38.6201 21.073 38.4962 20.474 38.5562 19.8887C39.403 18.8769 40.2764 17.8849 41.15 16.8927L41.1501 16.8926L41.1503 16.8923C42.0229 15.9013 42.8956 14.91 43.7422 13.8986C42.1734 13.8539 40.5805 13.8333 39.0133 13.9072C38.6324 14.151 38.2879 14.4485 37.943 14.7465L37.9429 14.7465C37.6437 15.005 37.3441 15.2638 37.02 15.4881L37.062 15.2781C37.155 14.814 37.2478 14.3505 37.3225 13.8831L37.1636 13.8813C36.8986 13.8782 36.6337 13.8751 36.3688 13.878C36.5733 13.5601 36.7588 13.2301 36.9083 12.883C37.5829 11.4212 38.2622 9.96022 38.9416 8.49892C40.2419 5.70192 41.5428 2.90381 42.8126 0.0968031C42.1538 0.0741207 41.4943 0.0755644 40.835 0.0770078C40.3955 0.0779701 39.956 0.0789323 39.5168 0.0727463C39.4503 0.076148 39.3783 0.0762242 39.3039 0.0763031C39.0401 0.076583 38.7451 0.0768959 38.5494 0.225679C38.26 0.434667 38.0317 0.687989 37.8039 0.940675L37.8039 0.940698C37.5205 1.2552 37.2379 1.56872 36.8396 1.79453C37.0183 1.16562 37.0475 0.722282 36.9169 0.083056C36.5376 0.0900927 36.1563 0.0842697 35.7748 0.0784419C35.1314 0.0686152 34.4872 0.0587751 33.8497 0.11055C33.4401 0.360963 33.083 0.699828 32.7272 1.03733L32.7272 1.03735C32.5069 1.2464 32.2871 1.45494 32.0557 1.6416C32.0529 1.42554 32.0515 1.20918 32.0501 0.99277L32.0501 0.992078C32.0482 0.688941 32.0463 0.385706 32.0403 0.083056C29.0547 0.0668067 26.0699 0.0703628 23.0848 0.0739192C21.3349 0.076004 19.5849 0.0780889 17.8347 0.0761838C17.7508 0.159787 17.6675 0.243684 17.5845 0.327441L17.5844 0.327457L17.5844 0.327466C17.2184 0.696454 16.8552 1.0627 16.4462 1.389C16.3999 0.96457 16.3689 0.540137 16.3535 0.113986C15.5319 -0.048857 14.7386 -0.00293946 13.9347 0.0435926ZM14.5113 0.551091C13.8486 0.546142 13.1859 0.541193 12.525 0.565938C11.8646 2.7944 11.2626 5.04434 10.6607 7.29421L10.6606 7.29432C10.1458 9.21847 9.63102 11.1426 9.07971 13.0532C9.60495 13.0452 10.1302 13.0453 10.6554 13.0455C11.0306 13.0456 11.4058 13.0457 11.781 13.0429C12.171 11.5496 12.5748 10.0564 12.9924 8.57001C13.0152 8.48085 13.0379 8.39127 13.0607 8.30141L13.0613 8.29885L13.0617 8.29764L13.0617 8.29746L13.0617 8.29745L13.0617 8.29744L13.0617 8.29743L13.0617 8.29742C13.2499 7.55544 13.443 6.79378 13.7261 6.08527C13.8088 7.07479 13.9179 8.05933 14.0269 9.04352C14.1741 10.3717 14.3212 11.6993 14.4032 13.0377C14.9707 13.047 15.5382 13.0462 16.1057 13.0455H16.1059C16.5882 13.0449 17.0706 13.0442 17.5529 13.0497C18.0934 11.1396 18.6096 9.2208 19.1259 7.30177C19.7322 5.04816 20.3385 2.79427 20.9844 0.553909C20.465 0.551946 19.9451 0.552226 19.4248 0.552506C19.0346 0.552717 18.6443 0.552927 18.254 0.552191C18.0005 1.64774 17.7014 2.73277 17.4023 3.81769L17.4023 3.81776C17.1094 4.88032 16.8165 5.94277 16.5666 7.0149C16.367 5.87818 16.267 4.72635 16.1669 3.57447V3.57446V3.57445V3.57444V3.57443V3.57442V3.57442V3.57441L16.1669 3.57427L16.1669 3.57422L16.1669 3.5742L16.1669 3.57417L16.1669 3.57414L16.1668 3.57412L16.1668 3.57409L16.1668 3.57407L16.1668 3.57404L16.1668 3.57401L16.1668 3.57399L16.1668 3.57396C16.079 2.56335 15.9912 1.5527 15.8363 0.552191C15.395 0.557689 14.9532 0.55439 14.5113 0.551091ZM22.0208 0.57106C23.9117 0.543328 25.8118 0.547521 27.7112 0.551712C28.9895 0.554532 30.2675 0.557352 31.5421 0.55044C31.5162 1.34748 31.4519 2.14402 31.3876 2.94033V2.94035V2.94038V2.9404V2.94043V2.94045V2.94048V2.9405V2.94052V2.94054C31.3325 3.62231 31.2775 4.3039 31.2466 4.9855L31.2349 5.06217L31.2349 5.06219C31.1562 5.57672 31.0792 6.08031 31.1005 6.60418C31.792 5.31633 32.4325 3.99861 33.0727 2.68139L33.0728 2.68131L33.0728 2.68125L33.0728 2.6812L33.0728 2.68116L33.0729 2.68113C33.4158 1.9755 33.7587 1.27002 34.1094 0.569341C34.671 0.549934 35.2325 0.551076 35.7941 0.552218C36.0281 0.552693 36.2621 0.553169 36.4961 0.552158C36.4876 1.06766 36.4704 1.58317 36.4171 2.09695C36.3733 2.50018 36.3696 2.903 36.3658 3.30581C36.3619 3.72523 36.3579 4.14464 36.3088 4.5645C36.2332 5.24153 36.2246 5.922 36.2504 6.60418C36.6752 5.67211 37.1081 4.7437 37.5409 3.8154L37.541 3.81529L37.541 3.81522L37.541 3.81514L37.5411 3.81506L37.5411 3.81499L37.5411 3.81491L37.5412 3.81483L37.5412 3.81475C38.0467 2.73066 38.552 1.64673 39.0445 0.557313C40.0462 0.55044 41.048 0.545284 42.0481 0.562468C41.0719 2.67519 40.0896 4.78615 39.1073 6.89691L39.1062 6.89927C38.1523 8.94912 37.1984 10.9988 36.2504 13.0497C35.7185 13.0444 35.1871 13.0455 34.6556 13.0466C34.1621 13.0476 33.6685 13.0487 33.1746 13.0446C33.2969 11.9244 33.3579 10.7967 33.419 9.66916L33.419 9.66901L33.419 9.66885L33.419 9.6687L33.419 9.66854L33.419 9.66839L33.419 9.66824L33.419 9.66808L33.4191 9.66793L33.4191 9.66778C33.4755 8.62509 33.532 7.58245 33.6368 6.54576C32.896 8.15307 32.1403 9.75568 31.3847 11.3578C31.1185 11.9223 30.8523 12.4868 30.5867 13.0514C29.6021 13.0411 28.6175 13.0411 27.6329 13.0531C27.6567 12.1133 27.7297 11.1752 27.8027 10.2368L27.8027 10.2368C27.8562 9.54868 27.9098 8.86046 27.9439 8.17132C27.9854 7.46689 28.0507 6.76273 28.116 6.05841C28.216 4.98108 28.316 3.90339 28.3306 2.82382C27.7586 2.81785 27.1866 2.81933 26.6147 2.8208C25.8687 2.82273 25.1227 2.82466 24.3766 2.81007C24.2764 3.16711 24.183 3.52575 24.0897 3.88441C23.9463 4.43544 23.8029 4.98653 23.6343 5.53193C24.1321 5.53627 24.6299 5.53574 25.1277 5.53521C25.8121 5.53447 26.4965 5.53374 27.181 5.54568C27.1056 5.83052 27.0252 6.11409 26.9448 6.39766C26.8161 6.8514 26.6874 7.30513 26.5796 7.76407C25.9511 7.78414 25.3226 7.78338 24.6938 7.78263H24.6938C24.1381 7.78196 23.5823 7.78129 23.026 7.795C22.8585 8.52839 22.6507 9.25054 22.4428 9.97321L22.4428 9.97328L22.4428 9.97334L22.4427 9.97341L22.4427 9.97347L22.4427 9.97354L22.4427 9.9736L22.4427 9.97367L22.4427 9.97374L22.4426 9.9738L22.4426 9.97397L22.4425 9.97413L22.4425 9.9743L22.4425 9.97435L22.4425 9.97441L22.4425 9.97446L22.4424 9.97452L22.4424 9.97457L22.4424 9.97462C22.3689 10.2302 22.2953 10.4858 22.2235 10.742C22.836 10.749 23.4484 10.7479 24.0607 10.7468H24.0608H24.0609H24.061H24.0611H24.0612H24.0613H24.0613H24.0614H24.0615C24.6394 10.7458 25.217 10.7447 25.7943 10.7506C25.5314 11.5015 25.3458 12.2713 25.1877 13.0514C24.2858 13.0395 23.3831 13.0431 22.4804 13.0466H22.4803C21.1764 13.0518 19.8727 13.057 18.5721 13.0153C19.1658 10.9785 19.7161 8.92762 20.2664 6.87663L20.2664 6.87661L20.2664 6.87659L20.2664 6.87657L20.2664 6.87655L20.2664 6.87654L20.2664 6.87652L20.2664 6.8765L20.2664 6.87647C20.7003 5.25937 21.1342 3.64217 21.5895 2.03166C21.6329 1.88017 21.6693 1.72301 21.7059 1.56486L21.706 1.56479C21.7853 1.22246 21.8656 0.87546 22.0208 0.57106ZM22.8336 16.5035C23.0432 15.6787 22.6875 14.9278 21.9796 14.4896C20.9004 13.8744 19.5704 13.6768 18.3556 13.9346C17.2249 14.1562 16.1647 14.5325 15.357 15.3934C14.7534 15.997 14.5442 16.8751 14.3455 17.7088C14.2936 17.9266 14.2424 18.1413 14.1851 18.3473C13.9171 19.276 13.667 20.2108 13.4169 21.1458L13.4169 21.1459L13.4169 21.1459L13.4169 21.146L13.4169 21.146L13.4168 21.1461L13.4168 21.1461L13.4168 21.1462L13.4168 21.1462C13.1361 22.1954 12.8554 23.2447 12.5493 24.2859C12.3568 25.0059 12.2554 25.6829 12.7005 26.3376C13.2091 27.0387 14.247 27.3308 15.0666 27.4305C15.8492 27.5949 16.6932 27.4289 17.4796 27.2743L17.5857 27.2535C18.9106 26.9218 20.3093 26.0231 20.6358 24.6124C21.373 21.9232 22.1119 19.1979 22.8336 16.5035ZM7.96834 14.3751H7.96838C8.35115 14.3775 8.73383 14.3799 9.11589 14.3711C9.31757 15.5203 9.44568 16.6876 9.57329 17.8504L9.5733 17.8504L9.5733 17.8504L9.5733 17.8504L9.57331 17.8504L9.57331 17.8505L9.57331 17.8505L9.57331 17.8505C9.6077 18.1638 9.64205 18.4768 9.67779 18.789C10.0219 18.2729 10.3685 17.7585 10.7151 17.244L10.7152 17.2439C11.3553 16.2939 11.9954 15.344 12.6196 14.3832C13.5338 14.3711 14.4514 14.3746 15.3672 14.3883C14.5074 15.6454 13.6593 16.9107 12.8113 18.176L12.8113 18.176C12.2137 19.0675 11.6163 19.959 11.0147 20.8476C10.9542 20.9417 10.8929 21.0328 10.8324 21.1226L10.8324 21.1227C10.5836 21.4924 10.3485 21.8417 10.238 22.2979C10.0312 23.1251 9.80552 23.9466 9.57988 24.7682C9.39117 25.4553 9.20247 26.1423 9.02482 26.8326C8.00927 26.8498 6.99201 26.8463 5.97646 26.8377C6.38028 25.3909 6.77721 23.9423 7.16728 22.492C7.18701 22.4112 7.21304 22.3273 7.23957 22.2418C7.31006 22.0146 7.38407 21.776 7.35286 21.5538L7.34511 21.5035L7.3451 21.5035C7.18269 20.4496 7.01976 19.3924 6.92843 18.3302C6.86723 17.6967 6.7706 17.066 6.67399 16.4353C6.56987 15.7557 6.46577 15.0762 6.40605 14.3935C6.92611 14.3687 7.44731 14.3719 7.96834 14.3751ZM27.9647 14.3771H27.9646H27.9645H27.9645H27.9644H27.9643H27.9642C26.79 14.3751 25.6154 14.373 24.4436 14.3864L24.3422 14.6098C23.937 16.0884 23.5367 17.5732 23.136 19.059L23.1359 19.0595C22.4355 21.6571 21.7342 24.2578 21.0052 26.8341C22.0104 26.8513 23.0173 26.8582 24.0243 26.8376C24.2517 25.8653 24.5199 24.902 24.7881 23.9386L24.7881 23.9386L24.7881 23.9385L24.7881 23.9384L24.7882 23.9383L24.7882 23.9382L24.7882 23.9381C24.9902 23.2127 25.1921 22.4873 25.3766 21.7581C25.5323 21.7692 25.7108 21.761 25.8966 21.7525C26.3713 21.7307 26.8938 21.7068 27.205 21.997C27.3137 22.4038 27.1873 22.8598 27.0734 23.2707C27.0559 23.3336 27.0388 23.3954 27.0228 23.4558C26.85 24.0074 26.7051 24.5656 26.5603 25.124L26.5602 25.124L26.5602 25.124L26.5602 25.1241L26.5602 25.1241L26.5602 25.1241L26.5602 25.1241L26.5602 25.1241C26.4113 25.6981 26.2623 26.2722 26.0829 26.8393C26.7226 26.8504 27.3624 26.8496 28.0018 26.8488H28.0021C28.4497 26.8483 28.8971 26.8478 29.3443 26.8513C29.5403 26.0075 29.7715 25.1748 30.0028 24.342L30.0028 24.3419C30.1893 23.6705 30.3757 22.999 30.5437 22.3217C30.6313 21.8973 30.6984 21.4986 30.5334 21.0811C30.3765 20.9489 30.1939 20.8401 30.0155 20.7338L30.0155 20.7338C29.9829 20.7143 29.9504 20.695 29.9182 20.6756C30.5145 20.435 31.0283 20.0913 31.3376 19.5122C31.5757 19.0346 31.7256 18.5085 31.873 17.9912L31.873 17.9912L31.8731 17.9911C31.9096 17.8627 31.9461 17.7348 31.9837 17.6083L32.0082 17.5157L32.0307 17.4308C32.2294 16.6849 32.4671 15.7926 32.2603 15.0548C31.9201 14.5136 31.3616 14.3744 30.7568 14.3744C29.8275 14.3804 28.8966 14.3788 27.9655 14.3771H27.9654H27.9652H27.9651H27.965H27.9649H27.9647ZM21.7885 27.7313C22.7043 27.855 23.7646 28.3361 24.0945 29.264C24.2634 29.9814 24.0761 30.5973 23.8763 31.2544C23.8464 31.3528 23.8162 31.4521 23.7869 31.5529C23.3991 33.0128 23.0035 34.4684 22.6073 35.9258L22.6073 35.9261C22.3908 36.7225 22.1741 37.5195 21.9586 38.318C21.6218 39.6961 20.4189 40.5828 19.1113 40.9625C18.1593 41.3045 17.1902 41.2856 16.1952 41.2169C15.3 41.0605 14.2535 40.6945 13.8239 39.8233C13.4984 39.1355 13.7564 38.3224 13.9937 37.5746L13.9937 37.5746C14.067 37.3434 14.1384 37.1185 14.1899 36.9055C14.3654 36.1914 14.5595 35.4826 14.7536 34.7735C14.8939 34.2609 15.0343 33.7482 15.1677 33.2334C15.3173 32.7745 15.433 32.3075 15.5485 31.8411L15.5485 31.8411C15.6891 31.2738 15.8294 30.7074 16.0303 30.1576C16.3671 29.2451 17.1695 28.5939 18.0339 28.2038C19.1955 27.6402 20.5272 27.6075 21.7885 27.7313ZM32.1951 28.1608C31.4751 27.6934 30.5557 27.6522 29.7241 27.6694C28.2463 27.6591 26.6946 28.2261 25.667 29.307C25.1223 30.0184 24.6481 30.7126 24.691 31.6525C24.6292 32.8193 25.2581 33.7008 25.9867 34.5342L26.1086 34.6607C26.6531 35.2251 27.2297 35.8229 27.6741 36.4639C27.9387 36.9107 28.1518 37.3695 27.8786 37.8712C27.5435 38.6187 26.3681 39.0071 25.8887 38.1737C25.847 37.7372 25.9638 37.2671 26.0737 36.825C26.0996 36.7206 26.1252 36.6177 26.1482 36.5172C25.543 36.5357 24.9372 36.5357 24.3311 36.5357C23.9271 36.5357 23.5229 36.5357 23.1187 36.5412C23.0405 36.9805 22.9231 37.411 22.8059 37.8408L22.8059 37.8409C22.6967 38.2417 22.5875 38.642 22.5104 39.0483C22.5482 39.6738 22.8919 40.3663 23.471 40.6635C24.7735 41.3973 26.2942 41.3904 27.6999 40.9728C28.9319 40.6756 30.1915 39.892 30.8187 38.7699C31.2654 37.7784 31.6091 36.7474 31.207 35.6786C30.8773 34.6444 30.1529 33.9653 29.427 33.2846C28.9914 32.8762 28.5552 32.4673 28.2033 31.9807C27.7291 31.3707 27.9971 30.3638 28.7704 30.1593C29.1604 29.9943 29.4732 30.2349 29.743 30.4961C29.8641 31.0218 29.7377 31.4956 29.6059 31.9893L29.6059 31.9894L29.6059 31.9895L29.6058 31.9896C29.5843 32.0702 29.5627 32.1513 29.5419 32.2333C30.1713 32.2206 30.8007 32.2216 31.4297 32.2226H31.4298H31.4299H31.43H31.4301C31.8193 32.2233 32.2083 32.2239 32.5971 32.2213C32.6778 31.7989 32.792 31.3851 32.9063 30.9713L32.9063 30.9712L32.9063 30.9712L32.9063 30.9711L32.9063 30.9711C32.9891 30.6713 33.0718 30.3714 33.1419 30.0682C33.3068 29.3018 32.8171 28.5646 32.1951 28.1608ZM10.3439 28.0581H10.3439H10.3439H10.344H10.344C10.9649 28.064 11.5856 28.07 12.2037 28.056C13.0749 28.025 13.8945 28.0783 14.6781 28.4924C15.0664 28.7468 15.2469 29.3138 15.2641 29.7554C15.1261 30.7629 14.857 31.7037 14.5849 32.6549L14.5849 32.655C14.457 33.1022 14.3284 33.5518 14.2124 34.0118C13.9272 34.9414 13.4959 35.8727 12.5886 36.3384C11.461 36.8312 10.3772 36.82 9.23482 36.8081C8.91137 36.8047 8.58322 36.8013 8.24803 36.8092C7.95639 37.9727 7.62819 39.1332 7.3012 40.2894L7.21874 40.581C6.72472 40.5759 6.23069 40.5763 5.73667 40.5767C5.24264 40.5772 4.74862 40.5776 4.25459 40.5724C4.54182 39.3549 4.87561 38.1484 5.20942 36.9417L5.20944 36.9417L5.20946 36.9416L5.20947 36.9415L5.20948 36.9415C5.45278 36.062 5.6961 35.1825 5.92139 34.2987C6.184 33.3895 6.42783 32.4728 6.6717 31.5561C6.97995 30.3973 7.28825 29.2383 7.63458 28.0938C8.5334 28.0408 9.43886 28.0494 10.3438 28.0581H10.3438H10.3439ZM37.6388 28.0569C36.7172 28.0596 35.7955 28.0623 34.8738 28.0525C34.8082 28.0597 34.7315 28.0579 34.6517 28.0559C34.4641 28.0514 34.2589 28.0465 34.1384 28.1574C34.0556 28.4412 33.985 28.7279 33.9143 29.0146L33.9143 29.0147C33.8032 29.4657 33.6921 29.9167 33.5335 30.3569C34.2174 30.3448 34.9013 30.3448 35.587 30.35C34.9827 32.492 34.4075 34.6469 33.8325 36.8011L33.8325 36.8013L33.8324 36.8016L33.8319 36.8034L33.8314 36.8053C33.4912 38.0799 33.151 39.3544 32.805 40.6257C33.0882 40.6257 33.3714 40.6251 33.6544 40.6246C34.3621 40.6232 35.0695 40.6218 35.7777 40.6291C36.0171 39.8635 36.2232 39.09 36.4294 38.3163C36.5827 37.7408 36.7361 37.1652 36.9032 36.5927C37.1322 35.664 37.3865 34.7413 37.6409 33.8187L37.6409 33.8185C37.9593 32.6638 38.2776 31.5093 38.546 30.3431C38.9766 30.3495 39.4066 30.3493 39.8367 30.349C40.0948 30.3489 40.353 30.3487 40.6114 30.35C40.7239 29.7949 40.8756 29.2522 41.0273 28.7092L41.0273 28.7092L41.0273 28.7091C41.0865 28.4974 41.1457 28.2857 41.2025 28.0732C40.0151 28.0499 38.8272 28.0534 37.639 28.0569H37.6389H37.6388ZM19.5583 17.1823C19.6631 16.8713 19.3967 16.5878 19.1699 16.4125C18.6768 16.3008 18.2729 16.3833 17.9018 16.7339C17.56 17.0257 17.4716 17.41 17.379 17.813L17.379 17.813L17.379 17.8131C17.3505 17.9369 17.3216 18.0624 17.2849 18.1876C17.0327 19.0773 16.7948 19.9711 16.5568 20.8651C16.2791 21.9084 16.0013 22.9522 15.7006 23.9904C15.5975 24.3754 15.6765 24.7242 16.0425 24.9287C16.4584 25.0197 16.9498 24.9991 17.2711 24.6829C17.6557 24.3383 17.772 23.8974 17.8968 23.4248L17.9258 23.3151C18.0572 22.7539 18.2108 22.1985 18.3645 21.643L18.3645 21.643L18.3645 21.6429C18.5124 21.1082 18.6603 20.5733 18.7885 20.0331C19.0754 19.0914 19.3246 18.1395 19.5583 17.1823ZM28.8993 16.7216C28.2222 16.4965 27.5246 16.4931 26.8201 16.548C26.6388 17.0695 26.4989 17.609 26.3588 18.1491C26.2385 18.6128 26.118 19.0771 25.9712 19.5311C26.0727 19.5325 26.1762 19.5348 26.2809 19.5372H26.281H26.281C26.8407 19.5501 27.4361 19.5638 27.9645 19.4263C28.2068 19.3094 28.3545 19.0964 28.4439 18.8489C28.6982 18.1599 28.8958 17.4622 28.8993 16.7216ZM20.708 30.3687C20.9734 30.7291 20.8806 31.0308 20.7743 31.3764L20.7743 31.3765C20.7422 31.4806 20.709 31.5888 20.6839 31.7038C20.4025 32.7696 20.1126 33.8363 19.8229 34.9027L19.8227 34.9032C19.5729 35.8225 19.3232 36.7416 19.079 37.6596C18.8831 38.3985 18.0462 39.0721 17.297 38.6116C16.9105 38.3583 16.9853 38.0105 17.0678 37.627L17.0788 37.5754C17.264 36.9047 17.445 36.2326 17.626 35.5605L17.6263 35.5591L17.6265 35.5586C17.9071 34.5163 18.1878 33.4738 18.4844 32.4358C18.5324 32.2724 18.5718 32.0975 18.6119 31.9198C18.7054 31.5053 18.8023 31.0754 19.0188 30.7398C19.39 30.2123 20.1598 29.8875 20.708 30.3687ZM10.0302 30.3603C10.178 30.3643 10.3464 30.354 10.5229 30.3432C11.0272 30.3123 11.5973 30.2774 11.941 30.5613C12.0093 31.1276 11.8236 31.7361 11.6466 32.316C11.5787 32.5385 11.5121 32.7569 11.4616 32.967C11.4336 33.0556 11.4076 33.1518 11.3806 33.2514L11.3806 33.2515C11.2572 33.708 11.1147 34.2351 10.6746 34.4241C10.2893 34.5576 9.84919 34.5437 9.41932 34.5302H9.41923C9.21258 34.5236 9.00829 34.5172 8.8136 34.5272C9.03308 33.8904 9.20177 33.2383 9.3703 32.5869L9.3703 32.5868C9.56462 31.8357 9.75872 31.0854 10.0302 30.3603Z" fill="black"/>
</svg>
